name: MSX Kanji ROM Fullwidth non-Kanji
spacing: character-cell
raster-size: 16 16
converter: monobit v0.22
source-name: KANJI.rom
source-format: binary
source-url: http://bluemsx.msxblue.com/


# 0x60
0x21, 0x20:
    ................
    ................
    ................
    ................
    ................
    .......@@.......
    ......@@@@......
    @@@@@@@@@@@@@@@@
    ......@@@@......
    .......@@.......
    ................
    ................
    ................
    ................
    ................
    ................


# 0x61
0x21, 0x21:
    ................
    ................
    ................
    ................
    ................
    ................
    ................
    ................
    ................
    ................
    ................
    ................
    ................
    ................
    ................
    ................


# 0x62
0x21, 0x22:
    ................
    ................
    ................
    ................
    ................
    ................
    ................
    ................
    ................
    ................
    ................
    .@..............
    ..@.............
    ..@@............
    ...@@...........
    ...@@...........


# 0x63
0x21, 0x23:
    ................
    ................
    ................
    ................
    ................
    ................
    ................
    ................
    ................
    ................
    ................
    ...@@@..........
    ..@...@.........
    ..@...@.........
    ..@...@.........
    ...@@@..........


# 0x64
0x21, 0x24:
    ................
    ................
    ................
    ................
    ................
    ................
    ................
    ................
    ................
    ................
    ................
    ................
    ..@@............
    ..@@............
    ...@............
    ..@.............


# 0x65
0x21, 0x25:
    ................
    ................
    ................
    ................
    ................
    ................
    ................
    ................
    ................
    ................
    ................
    ................
    ................
    ..@@............
    ..@@............
    ................


# 0x66
0x21, 0x26:
    ................
    ................
    ................
    ................
    ................
    ................
    ................
    .......@........
    ......@@@.......
    .......@........
    ................
    ................
    ................
    ................
    ................
    ................


# 0x67
0x21, 0x27:
    ................
    ................
    .......@........
    ......@@@.......
    .......@........
    ................
    ................
    ................
    ................
    ................
    .......@........
    ......@@@.......
    .......@........
    ................
    ................
    ................


# 0x68
0x21, 0x28:
    ................
    ................
    .......@........
    ......@@@.......
    .......@........
    ................
    ................
    ................
    ................
    ................
    .......@........
    ......@@@.......
    .......@@.......
    ........@.......
    .......@........
    ................


# 0x69
0x21, 0x29:
    ................
    .....@@@@@......
    ....@.....@.....
    ...@.......@....
    ...@.......@....
    ...........@....
    ..........@.....
    .........@......
    ........@.......
    .......@........
    .......@........
    ................
    ................
    .......@........
    ......@@@.......
    .......@........


# 0x6a
0x21, 0x2a:
    .......@........
    ......@@@.......
    ......@@@.......
    ......@@@.......
    ......@@@.......
    ......@@@.......
    ......@@@.......
    ......@@@.......
    ......@@@.......
    .......@........
    .......@........
    ................
    ................
    .......@........
    ......@@@.......
    .......@........


# 0x6b
0x21, 0x2b:
    ................
    .@...@..........
    ..@...@.........
    ...@...@........
    ...@...@........
    ................
    ................
    ................
    ................
    ................
    ................
    ................
    ................
    ................
    ................
    ................


# 0x6c
0x21, 0x2c:
    ................
    ...@@@..........
    ..@...@.........
    ..@...@.........
    ..@...@.........
    ...@@@..........
    ................
    ................
    ................
    ................
    ................
    ................
    ................
    ................
    ................
    ................


# 0x6d
0x21, 0x2d:
    ........@@......
    ......@@........
    ....@@..........
    ................
    ................
    ................
    ................
    ................
    ................
    ................
    ................
    ................
    ................
    ................
    ................
    ................


# 0x6e
0x21, 0x2e:
    .....@@.........
    .......@@.......
    .........@@.....
    ................
    ................
    ................
    ................
    ................
    ................
    ................
    ................
    ................
    ................
    ................
    ................
    ................


# 0x6f
0x21, 0x2f:
    ................
    .....@...@......
    .....@...@......
    ................
    ................
    ................
    ................
    ................
    ................
    ................
    ................
    ................
    ................
    ................
    ................
    ................


# 0x70
0x21, 0x30:
    .......@........
    ......@.@.......
    .....@...@......
    ................
    ................
    ................
    ................
    ................
    ................
    ................
    ................
    ................
    ................
    ................
    ................
    ................


# 0x71
0x21, 0x31:
    @@@@@@@@@@@@@@@.
    ................
    ................
    ................
    ................
    ................
    ................
    ................
    ................
    ................
    ................
    ................
    ................
    ................
    ................
    ................


# 0x72
0x21, 0x32:
    ................
    ................
    ................
    ................
    ................
    ................
    ................
    ................
    ................
    ................
    ................
    ................
    ................
    ................
    ................
    @@@@@@@@@@@@@@@.


# 0x73
0x21, 0x33:
    ................
    ................
    ................
    ................
    ................
    .....@..........
    ......@.........
    .......@........
    ........@.......
    .........@......
    .........@......
    ................
    ................
    ................
    ................
    ................


# 0x74
0x21, 0x34:
    ................
    ................
    ................
    ...........@....
    .........@..@...
    .....@....@..@..
    ......@....@....
    .......@........
    ........@.......
    .........@......
    .........@......
    ................
    ................
    ................
    ................
    ................


# 0x75
0x21, 0x35:
    ................
    ................
    ................
    ................
    ................
    ....@@..........
    ......@.........
    .......@........
    ........@.......
    .......@@@......
    ......@...@.....
    ..........@.....
    ................
    ................
    ................
    ................


# 0x76
0x21, 0x36:
    ................
    ................
    ................
    ................
    ...........@....
    ....@@...@..@...
    ......@...@..@..
    .......@...@....
    ........@.......
    .......@@@......
    ......@...@.....
    ..........@.....
    ................
    ................
    ................
    ................


# 0x77
0x21, 0x37:
    ................
    ................
    ................
    ................
    ................
    ......@...@.....
    ......@...@.....
    ......@...@.....
    .....@...@......
    .....@...@......
    ....@...@.......
    ...@...@........
    ................
    ................
    ................
    ................


# 0x78
0x21, 0x38:
    .......@........
    ......@.@.......
    ......@..@......
    .....@....@.....
    ....@......@....
    ...@........@...
    ..@..........@..
    @@............@.
    ...@@@@@@@@@....
    .......@........
    .......@........
    .......@........
    .......@........
    .......@........
    @@@@@@@@@@@@@@@.
    ................


# 0x79
0x21, 0x39:
    ................
    ......@.........
    ......@.........
    .....@..........
    .....@@@@@@@@...
    ....@.......@...
    ....@.......@...
    ...@.......@....
    ..@........@....
    .@...@....@.....
    ......@..@......
    .......@@.......
    ........@.......
    .........@......
    ..........@.....
    ................


# 0x7a
0x21, 0x3a:
    ................
    ............@...
    ...........@....
    ..........@.....
    ..........@.....
    ....@.@..@......
    ...@...@@.......
    ..@....@.@......
    ..@....@..@.....
    ..@...@....@....
    ..@..@..........
    ..@.@...........
    ...@............
    ...@............
    ..@.............
    ................


# 0x7b
0x21, 0x3b:
    ................
    .....@@@@@......
    ...@@.....@@....
    ..@.........@...
    ..@.........@...
    .@...........@..
    .@...........@..
    .@...........@..
    .@...........@..
    .@...........@..
    .@...........@..
    ..@.........@...
    ..@.........@...
    ...@@.....@@....
    .....@@@@@......
    ................


# 0x7c
0x21, 0x3c:
    ................
    ................
    ................
    ................
    ................
    ................
    .@..............
    ..@@@@@@@@@@@@..
    ................
    ................
    ................
    ................
    ................
    ................
    ................
    ................


# 0x7d
0x21, 0x3d:
    ................
    ................
    ................
    ................
    ................
    ................
    ................
    ..@@@@@@@@@@@...
    ................
    ................
    ................
    ................
    ................
    ................
    ................
    ................


# 0x7e
0x21, 0x3e:
    ................
    ................
    ................
    ................
    ................
    ................
    ................
    ................
    ....@@@@@@......
    ................
    ................
    ................
    ................
    ................
    ................
    ................


# 0x7f
0x21, 0x3f:
    ................
    ..............@.
    .............@..
    ............@...
    ...........@....
    ..........@.....
    .........@......
    ........@.......
    .......@........
    ......@.........
    .....@..........
    ....@...........
    ...@............
    ..@.............
    .@..............
    ................


# 0x80
0x21, 0x40:
    ................
    .@..............
    ..@.............
    ...@............
    ....@...........
    .....@..........
    ......@.........
    .......@........
    ........@.......
    .........@......
    ..........@.....
    ...........@....
    ............@...
    .............@..
    ..............@.
    ................


# 0x81
0x21, 0x41:
    ................
    ................
    ................
    ................
    ................
    ................
    ...@@@..........
    .@@...@@......@.
    @.......@@..@@..
    ..........@@....
    ................
    ................
    ................
    ................
    ................
    ................


# 0x82
0x21, 0x42:
    ......@..@......
    ......@..@......
    ......@..@......
    ......@..@......
    ......@..@......
    ......@..@......
    ......@..@......
    ......@..@......
    ......@..@......
    ......@..@......
    ......@..@......
    ......@..@......
    ......@..@......
    ......@..@......
    ......@..@......
    ......@..@......


# 0x83
0x21, 0x43:
    .......@........
    .......@........
    .......@........
    .......@........
    .......@........
    .......@........
    .......@........
    .......@........
    .......@........
    .......@........
    .......@........
    .......@........
    .......@........
    .......@........
    .......@........
    .......@........


# 0x84
0x21, 0x44:
    ................
    ................
    ................
    ................
    ................
    ................
    ................
    .@@...@@@...@@..
    .@@...@@@...@@..
    ..@....@....@...
    ................
    ................
    ................
    ................
    ................
    ................


# 0x85
0x21, 0x45:
    ................
    ................
    ................
    ................
    ................
    ................
    ................
    ..@@@.....@@@...
    ..@@@.....@@@...
    ...@.......@....
    ................
    ................
    ................
    ................
    ................
    ................


# 0x86
0x21, 0x46:
    .............@..
    ............@...
    ...........@@...
    ...........@@...
    ................
    ................
    ................
    ................
    ................
    ................
    ................
    ................
    ................
    ................
    ................
    ................


# 0x87
0x21, 0x47:
    ................
    ..@@............
    ..@@............
    ..@.............
    .@..............
    ................
    ................
    ................
    ................
    ................
    ................
    ................
    ................
    ................
    ................
    ................


# 0x88
0x21, 0x48:
    .........@...@..
    ........@...@...
    .......@@..@@...
    .......@@..@@...
    ................
    ................
    ................
    ................
    ................
    ................
    ................
    ................
    ................
    ................
    ................
    ................


# 0x89
0x21, 0x49:
    ................
    ..@@..@@........
    ..@@..@@........
    ..@...@.........
    .@...@..........
    ................
    ................
    ................
    ................
    ................
    ................
    ................
    ................
    ................
    ................
    ................


# 0x8a
0x21, 0x4a:
    ............@...
    ...........@....
    ..........@.....
    ..........@.....
    .........@......
    .........@......
    ........@.......
    ........@.......
    ........@.......
    ........@.......
    .........@......
    .........@......
    ..........@.....
    ..........@.....
    ...........@....
    ............@...


# 0x8b
0x21, 0x4b:
    ..@.............
    ...@............
    ....@...........
    ....@...........
    .....@..........
    .....@..........
    ......@.........
    ......@.........
    ......@.........
    ......@.........
    .....@..........
    .....@..........
    ....@...........
    ....@...........
    ...@............
    ..@.............


# 0x8c
0x21, 0x4c:
    ...........@....
    ..........@.....
    .........@......
    ........@.......
    ........@.......
    ........@.......
    ........@.......
    ........@.......
    ........@.......
    ........@.......
    ........@.......
    ........@.......
    ........@.......
    .........@......
    ..........@.....
    ...........@....


# 0x8d
0x21, 0x4d:
    ...@............
    ....@...........
    .....@..........
    ......@.........
    ......@.........
    ......@.........
    ......@.........
    ......@.........
    ......@.........
    ......@.........
    ......@.........
    ......@.........
    ......@.........
    .....@..........
    ....@...........
    ...@............


# 0x8e
0x21, 0x4e:
    ........@@@@....
    ........@.......
    ........@.......
    ........@.......
    ........@.......
    ........@.......
    ........@.......
    ........@.......
    ........@.......
    ........@.......
    ........@.......
    ........@.......
    ........@.......
    ........@.......
    ........@.......
    ........@@@@....


# 0x8f
0x21, 0x4f:
    ...@@@@.........
    ......@.........
    ......@.........
    ......@.........
    ......@.........
    ......@.........
    ......@.........
    ......@.........
    ......@.........
    ......@.........
    ......@.........
    ......@.........
    ......@.........
    ......@.........
    ......@.........
    ...@@@@.........


# 0x90
0x21, 0x50:
    ..........@@....
    .........@......
    .........@......
    .........@......
    .........@......
    .........@......
    .........@......
    ........@.......
    ........@.......
    .........@......
    .........@......
    .........@......
    .........@......
    .........@......
    .........@......
    ..........@@....


# 0x91
0x21, 0x51:
    ...@@...........
    .....@..........
    .....@..........
    .....@..........
    .....@..........
    .....@..........
    .....@..........
    ......@.........
    ......@.........
    .....@..........
    .....@..........
    .....@..........
    .....@..........
    .....@..........
    .....@..........
    ...@@...........


# 0x92
0x21, 0x52:
    ............@...
    ...........@....
    ..........@.....
    .........@......
    ........@.......
    .......@........
    ......@.........
    .....@..........
    .....@..........
    ......@.........
    .......@........
    ........@.......
    .........@......
    ..........@.....
    ...........@....
    ............@...


# 0x93
0x21, 0x53:
    ..@.............
    ...@............
    ....@...........
    .....@..........
    ......@.........
    .......@........
    ........@.......
    .........@......
    .........@......
    ........@.......
    .......@........
    ......@.........
    .....@..........
    ....@...........
    ...@............
    ..@.............


# 0x94
0x21, 0x54:
    ..........@..@..
    .........@..@...
    ........@..@....
    ........@..@....
    .......@..@.....
    ......@..@......
    ......@..@......
    .....@..@.......
    .....@..@.......
    ......@..@......
    ......@..@......
    .......@..@.....
    ........@..@....
    ........@..@....
    .........@..@...
    ..........@..@..


# 0x95
0x21, 0x55:
    ..@..@..........
    ...@..@.........
    ....@..@........
    ....@..@........
    .....@..@.......
    ......@..@......
    ......@..@......
    .......@..@.....
    .......@..@.....
    ......@..@......
    ......@..@......
    .....@..@.......
    ....@..@........
    ....@..@........
    ...@..@.........
    ..@..@..........


# 0x96
0x21, 0x56:
    ........@@@@@...
    ........@.......
    ........@.......
    ........@.......
    ........@.......
    ........@.......
    ........@.......
    ........@.......
    ........@.......
    ........@.......
    ........@.......
    ........@.......
    ........@.......
    ........@.......
    ........@.......
    ........@.......


# 0x97
0x21, 0x57:
    ......@.........
    ......@.........
    ......@.........
    ......@.........
    ......@.........
    ......@.........
    ......@.........
    ......@.........
    ......@.........
    ......@.........
    ......@.........
    ......@.........
    ......@.........
    ......@.........
    ......@.........
    ..@@@@@.........


# 0x98
0x21, 0x58:
    ........@@@@@@..
    ........@....@..
    ........@.@@@@..
    ........@.@.....
    ........@.@.....
    ........@.@.....
    ........@.@.....
    ........@.@.....
    ........@.@.....
    ........@.@.....
    ........@.@.....
    ........@.@.....
    ........@.@.....
    ........@.@.....
    ........@.@.....
    ........@@@.....


# 0x99
0x21, 0x59:
    .....@@@........
    .....@.@........
    .....@.@........
    .....@.@........
    .....@.@........
    .....@.@........
    .....@.@........
    .....@.@........
    .....@.@........
    .....@.@........
    .....@.@........
    .....@.@........
    .....@.@........
    ..@@@@.@........
    ..@....@........
    ..@@@@@@........


# 0x9a
0x21, 0x5a:
    ........@@@@....
    ........@@@.....
    ........@@@.....
    ........@@......
    ........@@......
    ........@.......
    ........@.......
    ........@.......
    ........@.......
    ........@.......
    ........@.......
    ........@@......
    ........@@......
    ........@@@.....
    ........@@@.....
    ........@@@@....


# 0x9b
0x21, 0x5b:
    ...@@@@.........
    ....@@@.........
    ....@@@.........
    .....@@.........
    .....@@.........
    ......@.........
    ......@.........
    ......@.........
    ......@.........
    ......@.........
    ......@.........
    .....@@.........
    .....@@.........
    ....@@@.........
    ....@@@.........
    ...@@@@.........


# 0x9c
0x21, 0x5c:
    ................
    ................
    ................
    .......@........
    .......@........
    .......@........
    .......@........
    .......@........
    ..@@@@@@@@@@@...
    .......@........
    .......@........
    .......@........
    .......@........
    .......@........
    ................
    ................


# 0x9d
0x21, 0x5d:
    ................
    ................
    ................
    ................
    ................
    ................
    ................
    ................
    ..@@@@@@@@@@@...
    ................
    ................
    ................
    ................
    ................
    ................
    ................


# 0x9e
0x21, 0x5e:
    ................
    .......@........
    .......@........
    .......@........
    .......@........
    .......@........
    ..@@@@@@@@@@@...
    .......@........
    .......@........
    .......@........
    .......@........
    .......@........
    ................
    ................
    ..@@@@@@@@@@@...
    ................


# 0x9f
0x21, 0x5f:
    ................
    ................
    ................
    ..@.........@...
    ...@.......@....
    ....@.....@.....
    .....@...@......
    ......@.@.......
    .......@........
    ......@.@.......
    .....@...@......
    ....@.....@.....
    ...@.......@....
    ..@.........@...
    ................
    ................


# 0xa0
0x21, 0x60:
    ................
    ................
    ................
    .......@........
    ......@@@.......
    .......@........
    ................
    ................
    ..@@@@@@@@@@@...
    ................
    ................
    .......@........
    ......@@@.......
    .......@........
    ................
    ................


# 0xa1
0x21, 0x61:
    ................
    ................
    ................
    ................
    ................
    ................
    ................
    ..@@@@@@@@@@@...
    ................
    ..@@@@@@@@@@@...
    ................
    ................
    ................
    ................
    ................
    ................


# 0xa2
0x21, 0x62:
    ................
    ..........@.....
    ..........@.....
    .........@......
    .........@......
    ........@.......
    ..@@@@@@@@@@@...
    ........@.......
    .......@........
    ..@@@@@@@@@@@...
    .......@........
    ......@.........
    ......@.........
    .....@..........
    .....@..........
    ................


# 0xa3
0x21, 0x63:
    ................
    ................
    ................
    ............@@..
    ..........@@....
    ........@@......
    ......@@........
    ....@@..........
    ..@@............
    ....@@..........
    ......@@........
    ........@@......
    ..........@@....
    ............@@..
    ................
    ................


# 0xa4
0x21, 0x64:
    ................
    ................
    ................
    .@@.............
    ...@@...........
    .....@@.........
    .......@@.......
    .........@@.....
    ...........@@...
    .........@@.....
    .......@@.......
    .....@@.........
    ...@@...........
    .@@.............
    ................
    ................


# 0xa5
0x21, 0x65:
    ................
    ..........@@....
    ........@@......
    ......@@........
    ....@@..........
    ..@@............
    ....@@..........
    ......@@........
    ........@@......
    ..........@@....
    ................
    ..@@@@@@@@@@@...
    ................
    ..@@@@@@@@@@@...
    ................
    ................


# 0xa6
0x21, 0x66:
    ................
    ..@@............
    ....@@..........
    ......@@........
    ........@@......
    ..........@@....
    ........@@......
    ......@@........
    ....@@..........
    ..@@............
    ................
    ..@@@@@@@@@@@...
    ................
    ..@@@@@@@@@@@...
    ................
    ................


# 0xa7
0x21, 0x67:
    ................
    ................
    ................
    ................
    ................
    ...@@.....@@....
    ..@..@...@..@...
    .@....@.@....@..
    .@.....@.....@..
    .@....@.@....@..
    ..@..@...@..@...
    ...@@.....@@....
    ................
    ................
    ................
    ................


# 0xa8
0x21, 0x68:
    ................
    ................
    .......@........
    ......@@@.......
    .......@........
    ................
    ................
    ................
    ................
    ................
    ................
    ...@.......@....
    ..@@@.....@@@...
    ...@.......@....
    ................
    ................


# 0xa9
0x21, 0x69:
    ................
    .......@........
    ......@@@.......
    .....@.@.@......
    ....@..@..@.....
    ...@...@...@....
    ..@....@....@...
    .......@........
    ......@@@.......
    .....@...@......
    ....@.....@.....
    ....@.....@.....
    ....@.....@.....
    .....@...@......
    ......@@@.......
    ................


# 0xaa
0x21, 0x6a:
    ................
    ......@@@.......
    .....@...@......
    ....@.....@.....
    ....@.....@.....
    ....@.....@.....
    .....@...@......
    ......@@@.......
    .......@........
    .......@........
    .......@........
    ..@@@@@@@@@@@...
    .......@........
    .......@........
    .......@........
    .......@........


# 0xab
0x21, 0x6b:
    ................
    .@@@............
    @...@...........
    @...@...........
    .@@@............
    ................
    ................
    ................
    ................
    ................
    ................
    ................
    ................
    ................
    ................
    ................


# 0xac
0x21, 0x6c:
    ................
    ..@.............
    ..@.............
    .@..............
    .@..............
    @...............
    ................
    ................
    ................
    ................
    ................
    ................
    ................
    ................
    ................
    ................


# 0xad
0x21, 0x6d:
    ................
    ..@..@..........
    ..@..@..........
    .@..@...........
    .@..@...........
    @..@............
    ................
    ................
    ................
    ................
    ................
    ................
    ................
    ................
    ................
    ................


# 0xae
0x21, 0x6e:
    ................
    .@@@............
    @...@...@@@@....
    @...@.@@....@...
    .@@@.@.......@..
    .....@.......@..
    ....@...........
    ....@...........
    ....@...........
    ....@...........
    ....@........@..
    .....@.......@..
    .....@.......@..
    ......@@....@...
    ........@@@@....
    ................


# 0xaf
0x21, 0x6f:
    ................
    ...@.......@....
    ...@.......@....
    ....@.....@.....
    ....@.....@.....
    .....@...@......
    ..@@@@...@@@@...
    ......@.@.......
    ......@.@.......
    .......@........
    ..@@@@@@@@@@@...
    .......@........
    .......@........
    .......@........
    .......@........
    .......@........


# 0xb0
0x21, 0x70:
    .......@........
    .....@@@@.......
    ...@@..@.@@.....
    ..@....@...@....
    ..@....@...@....
    ..@....@........
    ...@@..@........
    .....@@@@@......
    .......@..@@....
    .......@....@...
    .......@....@...
    ..@....@....@...
    ..@....@....@...
    ...@@..@..@@....
    .....@@@@@......
    .......@........


# 0xb1
0x21, 0x71:
    ................
    ................
    ................
    ........@.......
    ........@.......
    ......@@@@@.....
    .....@..@..@....
    ....@...@...@...
    ....@...@.......
    ....@...@.......
    ....@...@.......
    ....@...@...@...
    .....@..@..@....
    ......@@@@@.....
    ........@.......
    ........@.......


# 0xb2
0x21, 0x72:
    ................
    ......@@@@@.....
    .....@.....@....
    ....@......@....
    ....@...........
    ....@...........
    ....@...........
    ..@@@@@@@@......
    ....@...........
    ....@...........
    ....@...........
    ....@...........
    ....@...........
    ....@@..........
    ...@..@@....@...
    ..@.....@@@@....


# 0xb3
0x21, 0x73:
    ................
    ...@@.......@...
    ..@..@.....@....
    .@....@...@.....
    .@....@...@.....
    .@....@..@......
    ..@..@..@.......
    ...@@...@.......
    .......@...@@...
    ......@...@..@..
    ......@..@....@.
    .....@...@....@.
    ....@....@....@.
    ....@.....@..@..
    ...@.......@@...
    ..@.............


# 0xb4
0x21, 0x74:
    ................
    .....@....@.....
    .....@....@.....
    .....@....@@@...
    .....@@@@@@@@...
    ...@@@@@@@@.....
    ...@@@....@.....
    .....@....@.....
    .....@....@.....
    .....@....@@@...
    .....@@@@@@@@...
    ...@@@@@@@@.....
    ...@@@....@.....
    .....@....@.....
    .....@....@.....
    ................


# 0xb5
0x21, 0x75:
    ................
    .....@@@........
    ....@...@.......
    ....@...@.......
    ....@...@.......
    .....@.@........
    ......@.........
    .....@.@....@...
    ....@...@...@...
    ...@....@...@...
    ..@......@..@...
    ..@.......@.@...
    ..@........@....
    ..@.......@.@...
    ...@@...@@...@..
    .....@@@........


# 0xb6
0x21, 0x76:
    ................
    .......@........
    ......@@@.......
    ......@@@.......
    ..@...@@@...@...
    .@@@...@...@@@..
    ..@@@..@..@@@...
    .....@.@.@......
    ......@@@.......
    .....@.@.@......
    ..@@@..@..@@@...
    .@@@...@...@@@..
    ..@...@@@...@...
    ......@@@.......
    ......@@@.......
    .......@........


# 0xb7
0x21, 0x77:
    ................
    ......@@@@......
    ....@@....@@....
    ...@........@...
    ..@...@@@.@..@..
    ..@..@...@@..@..
    .@..@.....@...@.
    .@..@.....@...@.
    .@..@.....@...@.
    .@..@.....@...@.
    ..@..@...@@..@..
    ..@...@@@..@@...
    ...@............
    ....@@....@@@...
    ......@@@@......
    ................


# 0xb8
0x21, 0x78:
    ................
    .....@@@@.......
    ....@....@......
    ....@....@......
    .....@..........
    .....@@@........
    ....@...@@......
    ....@.....@.....
    ....@.....@.....
    .....@@...@.....
    .......@@@......
    ........@.......
    .........@......
    ....@....@......
    ....@....@......
    .....@@@@.......


# 0xb9
0x21, 0x79:
    .......@........
    .......@........
    ......@.@.......
    ......@.@.......
    .....@...@......
    .....@...@......
    @@@@@.....@@@@@.
    .@...........@..
    ..@@.......@@...
    ....@@...@@.....
    ....@.....@.....
    ....@..@..@.....
    ...@..@.@..@....
    ...@.@...@.@....
    ...@@.....@@....
    ..@.........@...


# 0xba
0x21, 0x7a:
    .......@........
    .......@........
    .......@........
    ......@@@.......
    ......@@@.......
    .....@@@@@......
    @@@@@@@@@@@@@@@.
    .@@@@@@@@@@@@@..
    ...@@@@@@@@@....
    .....@@@@@......
    ....@@@@@@@.....
    ....@@@@@@@.....
    ...@@@@.@@@@....
    ...@@@...@@@....
    ...@@.....@@....
    ..@.........@...


# 0xbb
0x21, 0x7b:
    ................
    .....@@@@@......
    ...@@.....@@....
    ..@.........@...
    .@...........@..
    .@...........@..
    @.............@.
    @.............@.
    @.............@.
    @.............@.
    @.............@.
    .@...........@..
    .@...........@..
    ..@.........@...
    ...@@.....@@....
    .....@@@@@......


# 0xbc
0x21, 0x7c:
    ................
    .....@@@@@......
    ...@@@@@@@@@....
    ..@@@@@@@@@@@...
    .@@@@@@@@@@@@@..
    .@@@@@@@@@@@@@..
    @@@@@@@@@@@@@@@.
    @@@@@@@@@@@@@@@.
    @@@@@@@@@@@@@@@.
    @@@@@@@@@@@@@@@.
    @@@@@@@@@@@@@@@.
    .@@@@@@@@@@@@@..
    .@@@@@@@@@@@@@..
    ..@@@@@@@@@@@...
    ...@@@@@@@@@....
    .....@@@@@......


# 0xbd
0x21, 0x7d:
    ................
    .....@@@@@......
    ...@@.....@@....
    ..@.........@...
    .@...@@@@@...@..
    .@..@.....@..@..
    @..@.......@..@.
    @..@.......@..@.
    @..@.......@..@.
    @..@.......@..@.
    @..@.......@..@.
    .@..@.....@..@..
    .@...@@@@@...@..
    ..@.........@...
    ...@@.....@@....
    .....@@@@@......


# 0xbe
0x21, 0x7e:
    ................
    .......@........
    ......@.@.......
    .....@...@......
    ....@.....@.....
    ...@.......@....
    ..@.........@...
    .@...........@..
    @.............@.
    .@...........@..
    ..@.........@...
    ...@.......@....
    ....@.....@.....
    .....@...@......
    ......@.@.......
    .......@........


# 0xbf
0x21, 0x7f:
    ..@.............
    ..@@@...........
    ..@@@@..........
    ..@@@@@@........
    ..@@@@@@@@......
    ..@@@@@@@@@.....
    ..@@@@@@@@@@@...
    ..@@@@@@@@@@@@@.
    ..@@@@@@@@@@@@@.
    ..@@@@@@@@@@@...
    ..@@@@@@@@@.....
    ..@@@@@@@@......
    ..@@@@@@........
    ..@@@@..........
    ..@@@...........
    ..@.............


# 0xc0
0x22, 0x20:
    ................
    ................
    ................
    ................
    .....@@@@@......
    .....@@@@@......
    ......@@@.......
    @@@@@@@@@@@@@@@@
    ......@@@.......
    .......@........
    .......@........
    ................
    ................
    ................
    ................
    ................


# 0xc1
0x22, 0x21:
    ................
    .......@........
    ......@@@.......
    .....@@@@@......
    ....@@@@@@@.....
    ...@@@@@@@@@....
    ..@@@@@@@@@@@...
    .@@@@@@@@@@@@@..
    @@@@@@@@@@@@@@@.
    .@@@@@@@@@@@@@..
    ..@@@@@@@@@@@...
    ...@@@@@@@@@....
    ....@@@@@@@.....
    .....@@@@@......
    ......@@@.......
    .......@........


# 0xc2
0x22, 0x22:
    ................
    .@@@@@@@@@@@@@@.
    .@............@.
    .@............@.
    .@............@.
    .@............@.
    .@............@.
    .@............@.
    .@............@.
    .@............@.
    .@............@.
    .@............@.
    .@............@.
    .@............@.
    .@@@@@@@@@@@@@@.
    ................


# 0xc3
0x22, 0x23:
    ................
    .@@@@@@@@@@@@@..
    .@@@@@@@@@@@@@..
    .@@@@@@@@@@@@@..
    .@@@@@@@@@@@@@..
    .@@@@@@@@@@@@@..
    .@@@@@@@@@@@@@..
    .@@@@@@@@@@@@@..
    .@@@@@@@@@@@@@..
    .@@@@@@@@@@@@@..
    .@@@@@@@@@@@@@..
    .@@@@@@@@@@@@@..
    .@@@@@@@@@@@@@..
    .@@@@@@@@@@@@@..
    .@@@@@@@@@@@@@..
    ................


# 0xc4
0x22, 0x24:
    ................
    .......@........
    ......@.@.......
    ......@.@.......
    .....@...@......
    .....@...@......
    ....@.....@.....
    ....@.....@.....
    ...@.......@....
    ..@.........@...
    ..@.........@...
    .@...........@..
    .@...........@..
    @@@@@@@@@@@@@@@.
    ................
    ................


# 0xc5
0x22, 0x25:
    ................
    .......@........
    ......@@@.......
    ......@@@.......
    .....@@@@@......
    .....@@@@@......
    ....@@@@@@@.....
    ....@@@@@@@.....
    ...@@@@@@@@@....
    ..@@@@@@@@@@@...
    ..@@@@@@@@@@@...
    .@@@@@@@@@@@@@..
    .@@@@@@@@@@@@@..
    @@@@@@@@@@@@@@@.
    ................
    ................


# 0xc6
0x22, 0x26:
    ................
    ................
    @@@@@@@@@@@@@@@.
    .@...........@..
    .@...........@..
    ..@.........@...
    ..@.........@...
    ...@.......@....
    ....@.....@.....
    ....@.....@.....
    .....@...@......
    .....@...@......
    ......@.@.......
    ......@.@.......
    .......@........
    ................


# 0xc7
0x22, 0x27:
    ................
    ................
    @@@@@@@@@@@@@@@.
    .@@@@@@@@@@@@@..
    .@@@@@@@@@@@@@..
    ..@@@@@@@@@@@...
    ..@@@@@@@@@@@...
    ...@@@@@@@@@....
    ....@@@@@@@.....
    ....@@@@@@@.....
    .....@@@@@......
    .....@@@@@......
    ......@@@.......
    ......@@@.......
    .......@........
    ................


# 0xc8
0x22, 0x28:
    ................
    @......@......@.
    .@....@@@....@..
    ..@....@....@...
    ...@.......@....
    ....@.....@.....
    .....@...@......
    ..@...@.@...@...
    .@@@...@...@@@..
    ..@...@.@...@...
    .....@...@......
    ....@.....@.....
    ...@...@...@....
    ..@...@@@...@...
    .@.....@.....@..
    @.............@.


# 0xc9
0x22, 0x29:
    ................
    ................
    ..@@@@@@@@@@@@..
    ..@@@@@@@@@@@@..
    ................
    ................
    ..@@@@@@@@@@@@..
    ..@@@@@@@@@@@@..
    .......@@.......
    .......@@.......
    .......@@.......
    .......@@.......
    .......@@.......
    .......@@.......
    .......@@.......
    ................


# 0xca
0x22, 0x2a:
    ................
    ................
    ................
    ................
    ..........@.....
    ...........@....
    ............@...
    @@@@@@@@@@@@@@..
    ............@...
    ...........@....
    ..........@.....
    ................
    ................
    ................
    ................
    ................


# 0xcb
0x22, 0x2b:
    ................
    ................
    ................
    ................
    ....@...........
    ...@............
    ..@.............
    .@@@@@@@@@@@@@@.
    ..@.............
    ...@............
    ....@...........
    ................
    ................
    ................
    ................
    ................


# 0xcc
0x22, 0x2c:
    ................
    .......@........
    ......@@@.......
    .....@.@.@......
    ....@..@..@.....
    .......@........
    .......@........
    .......@........
    .......@........
    .......@........
    .......@........
    .......@........
    .......@........
    .......@........
    .......@........
    .......@........


# 0xcd
0x22, 0x2d:
    .......@........
    .......@........
    .......@........
    .......@........
    .......@........
    .......@........
    .......@........
    .......@........
    .......@........
    .......@........
    .......@........
    .......@........
    ....@..@..@.....
    .....@.@.@......
    ......@@@.......
    .......@........


# 0xce
0x22, 0x2e:
    ................
    ................
    ................
    ................
    ................
    ..@@@@@@@@@@@...
    ..@@@@@@@@@@@...
    ................
    ................
    ..@@@@@@@@@@@...
    ..@@@@@@@@@@@...
    ................
    ................
    ................
    ................
    ................


# 0xcf
0x22, 0x2f:
    ..@.@.....@.@...
    .@..@...@.@..@..
    .@..@...@.@..@..
    @...@..@..@...@.
    @.@@@@.@@@@@@.@.
    @...@.@...@...@.
    @..@@@....@...@.
    @.@.@.@@@@@@@@@.
    @.@.@.@...@...@.
    @@..@....@@@..@.
    @@..@...@.@.@.@.
    @...@..@..@..@@.
    @...@.@...@...@.
    .@..@.....@..@..
    .@..@.....@..@..
    ..@.@.....@.@...


# 0xd0
0x22, 0x30:
    ..@....@....@...
    .@.....@.....@..
    .@....@......@..
    @.@@@@@@@@@@@.@.
    @....@........@.
    @....@........@.
    @...@@@@@@@...@.
    @...@.....@...@.
    @..@@@@@@@@...@.
    @.@.@.....@...@.
    @@..@@@@@@@...@.
    @...@.....@...@.
    @...@.....@...@.
    .@..@.....@..@..
    .@..@.....@..@..
    ..@.@....@@.@...


# 0xd1
0x22, 0x31:
    ................
    ....@@@@@@@.....
    .......@........
    .......@........
    .......@........
    .......@........
    .......@........
    .......@........
    .......@........
    .......@........
    .......@........
    .......@........
    .......@........
    .......@........
    .......@........
    ....@@@@@@@.....


# 0xd2
0x22, 0x32:
    ................
    ...@@@@@@@@@....
    .....@...@......
    .....@...@......
    .....@...@......
    .....@...@......
    .....@...@......
    .....@...@......
    .....@...@......
    .....@...@......
    .....@...@......
    .....@...@......
    .....@...@......
    .....@...@......
    .....@...@......
    ...@@@@@@@@@....


# 0xd3
0x22, 0x33:
    ................
    ..@@@@@@@@@@@...
    ....@..@..@.....
    ....@..@..@.....
    ....@..@..@.....
    ....@..@..@.....
    ....@..@..@.....
    ....@..@..@.....
    ....@..@..@.....
    ....@..@..@.....
    ....@..@..@.....
    ....@..@..@.....
    ....@..@..@.....
    ....@..@..@.....
    ....@..@..@.....
    ..@@@@@@@@@@@...


# 0xd4
0x22, 0x34:
    ................
    .@@@@.@@@...@@@.
    ..@....@.....@..
    ..@....@.....@..
    ..@....@.....@..
    ..@.....@...@...
    ..@.....@...@...
    ..@.....@...@...
    ..@.....@...@...
    ..@.....@...@...
    ..@......@.@....
    ..@......@.@....
    ..@......@.@....
    ..@.......@.....
    ..@.......@.....
    .@@@@.....@.....


# 0xd5
0x22, 0x35:
    ................
    .@@@@....@@@@...
    ...@......@.....
    ...@......@.....
    ...@......@.....
    ....@.....@.....
    ....@....@......
    ....@....@......
    .....@...@......
    .....@...@......
    .....@..@.......
    ......@.@.......
    ......@.@.......
    ......@.@.......
    .......@........
    .......@........


# 0xd6
0x22, 0x36:
    ................
    .@@@@..@@.@@@@..
    ..@.....@...@...
    ..@.....@...@...
    ..@.....@...@...
    ...@....@...@...
    ...@...@....@...
    ...@...@....@...
    ...@...@....@...
    ....@..@....@...
    ....@.@.....@...
    ....@.@.....@...
    ....@.@.....@...
    .....@......@...
    .....@......@...
    .....@....@@@@..


# 0xd7
0x22, 0x37:
    ................
    @@@@..@@@.@@@@@.
    ..@.....@..@.@..
    ..@.....@..@.@..
    ..@.....@..@.@..
    ..@.....@..@.@..
    ..@.....@..@.@..
    ...@...@...@.@..
    ...@...@...@.@..
    ...@...@...@.@..
    ...@...@...@.@..
    ....@.@....@.@..
    ....@.@....@.@..
    ....@.@....@.@..
    .....@.....@.@..
    .....@....@@@@@.


# 0xd8
0x22, 0x38:
    ................
    @@@@@..@@@@@@@@.
    ..@.....@.@.@.@.
    ..@.....@.@.@.@.
    ..@.....@.@.@.@.
    ..@.....@.@.@.@.
    ...@...@..@.@.@.
    ...@...@..@.@.@.
    ...@...@..@.@.@.
    ...@...@..@.@.@.
    ....@.@...@.@.@.
    ....@.@...@.@.@.
    ....@.@...@.@.@.
    .....@....@.@.@.
    .....@....@.@.@.
    .....@...@@@@@@.


# 0xd9
0x22, 0x39:
    ................
    @@@@.@@@@...@@@.
    ..@....@.....@..
    ..@.....@...@...
    ..@.....@...@...
    ..@......@.@....
    ..@......@.@....
    ..@.......@.....
    ..@.......@.....
    ..@......@.@....
    ..@......@.@....
    ..@.....@...@...
    ..@.....@...@...
    ..@....@.....@..
    ..@....@.....@..
    @@@@.@@@@...@@@.


# 0xda
0x22, 0x3a:
    ................
    ..@@@@@..@@@@...
    ....@.....@.....
    ....@.....@.....
    .....@...@......
    .....@...@......
    ......@.@.......
    ......@.@.......
    .......@........
    ......@.@.......
    ......@.@.......
    .....@...@......
    .....@...@......
    ....@.....@.....
    ....@.....@.....
    ..@@@@..@@@@@...


# 0xdb
0x22, 0x3b:
    ................
    ................
    ................
    ......@@@.@.....
    .....@...@@.....
    ....@.....@.....
    ...@......@.....
    ...@......@.....
    ...@....@@......
    ....@@@@.@......
    .........@.@....
    ......@@@@@.....
    ....@@...@......
    ...@.....@......
    ...@....@.......
    ....@@@@........


# 0xdc
0x22, 0x3c:
    ................
    ................
    ................
    ................
    .@@@.@@@.@@@....
    ....@...@...@...
    ....@...@...@...
    ....@...@...@...
    ...@...@...@....
    ...@...@...@....
    ...@...@...@....
    ..@...@...@.....
    ..@...@...@...@.
    ..@...@...@..@..
    ..@...@....@@...
    ................


# 0xdd
0x22, 0x3d:
    ................
    ................
    ................
    ................
    ................
    ................
    ...@@@.@..@..@..
    ..@...@.@@.@@.@.
    .@....@.@..@..@.
    .@......@..@..@.
    @.......@..@.@..
    @.......@.@..@..
    @......@..@..@..
    @....@.@..@.@...
    .@..@..@..@.@.@.
    ..@@...@..@..@..


# 0xde
0x22, 0x3e:
    ................
    ................
    ................
    ................
    ................
    ................
    .@.@.@...@.@.@..
    .@@.@.@..@@.@.@.
    .@..@.@..@..@.@.
    .@..@.@..@..@.@.
    @..@..@.@..@..@.
    @..@..@.@..@..@.
    @..@..@.@..@..@.
    @.@..@..@.@..@..
    @.@..@..@.@..@..
    @.@...@.@.@...@.


# 0xdf
0x22, 0x3f:
    ................
    ..@.............
    ..@.............
    ..@...@.........
    ..@..@..........
    .@..@...........
    .@.@...@..@..@..
    .@@.....@@.@@.@.
    .@.@....@..@..@.
    .@..@...@..@..@.
    .@..@...@..@..@.
    @...@...@.@..@..
    @....@..@.@..@..
    @....@.@..@.@...
    @....@.@..@.@.@.
    @....@.@..@..@..


# 0xe0
0x22, 0x40:
    ............@@..
    ...........@..@.
    .............@..
    ............@...
    ...........@@@@.
    ................
    ...@@@.@..@..@..
    ..@...@.@@.@@.@.
    .@....@.@..@..@.
    .@......@..@..@.
    @.......@..@.@..
    @.......@.@..@..
    @.......@.@..@..
    @....@.@..@.@...
    @...@..@..@.@.@.
    .@@@...@..@..@..


# 0xe1
0x22, 0x41:
    ................
    ............@@..
    ...........@..@.
    .............@..
    ............@...
    ...........@@@@.
    ................
    ...@@.@@.@@@....
    ..@..@..@...@...
    .....@..@...@...
    ....@...@..@....
    ....@..@...@....
    ....@..@...@....
    ....@..@..@...@.
    ...@..@...@..@..
    ...@..@....@@...


# 0xe2
0x22, 0x42:
    ................
    ................
    ............@@..
    ...........@..@.
    ...........@..@.
    ..........@...@.
    @@.@..@...@..@..
    ..@.@@.@..@..@..
    ..@.@..@..@.@...
    .@..@..@..@.@...
    .@..@..@..@.@...
    .@..@.@...@@....
    .@..@.@...@.....
    @..@..@..@@...@.
    @..@..@@@..@@@..
    @..@..@.........


# 0xe3
0x22, 0x43:
    ................
    ................
    ................
    @..@..@....@@.@.
    .@@.@@.@..@..@@.
    .@..@..@.@....@.
    .@..@.@.@.....@.
    @..@..@.@.....@.
    @..@..@.@...@@..
    @..@..@..@@@.@..
    @..@.@.......@..
    @..@.@.@...@@@@.
    @..@..@..@@..@..
    ........@....@..
    ........@...@...
    .........@@@....


# 0xe4
0x22, 0x44:
    ................
    ..@.............
    ..@...@.........
    ..@..@.....@@.@.
    ..@..@....@..@@.
    .@..@....@....@.
    .@.@....@.....@.
    .@@.@...@.....@.
    .@..@...@...@@..
    .@..@....@@@.@..
    @...@........@..
    @....@.....@@@@.
    @....@...@@..@..
    @....@..@....@..
    @....@..@...@...
    .........@@@....


# 0xe5
0x22, 0x45:
    ................
    ................
    ................
    ................
    ...@...@...@@...
    ...@...@..@..@..
    ..@...@...@...@.
    ..@...@...@...@.
    ..@...@...@.....
    ..@...@....@....
    ..@...@.....@...
    ..@...@......@..
    ..@..@.@.@...@..
    .@.@@...@@...@..
    .@........@@@...
    @...............


# 0xe6
0x22, 0x46:
    ..@..@..@...@...
    .@...@..@.@..@..
    .@...@..@..@.@..
    @...@...@.....@.
    @...@...@@@@@.@.
    @..@..@@@.....@.
    @.@.@...@.....@.
    @...@...@.....@.
    @...@...@.....@.
    @...@....@....@.
    @...@....@....@.
    @...@....@....@.
    @...@....@....@.
    .@..@.....@..@..
    .@..@.....@..@..
    ..@.@......@@...


# 0xe7
0x22, 0x47:
    ................
    @....@...@....@.
    @...@....@...@..
    @...@....@...@..
    @..@.....@..@...
    @..@.....@..@...
    @.@......@.@....
    @@.@.....@@.@...
    @...@....@...@..
    @...@....@...@..
    @...@....@...@..
    @....@...@....@.
    @....@...@....@.
    @....@.@.@....@.
    ................
    ................


# 0xe8
0x22, 0x48:
    ................
    @@@@@.@@@..@....
    ..@...@....@....
    ..@...@....@....
    ..@...@....@....
    ..@...@....@....
    ..@...@....@....
    ..@...@@@..@....
    ..@...@....@....
    ..@...@....@....
    ..@...@....@....
    ..@...@....@....
    ..@...@....@....
    ..@...@....@....
    ..@...@@@..@@@@.
    ................


# 0xe9
0x22, 0x49:
    ................
    @@....@.........
    @.@...@.........
    @.@...@.........
    @.@...@...@@....
    @..@..@..@..@...
    @..@..@..@..@...
    @..@..@.@....@..
    @..@..@.@....@..
    @...@.@.@....@..
    @...@.@.@....@..
    @...@.@.@....@..
    @...@.@..@..@...
    @....@@..@..@.@.
    @.....@...@@..@.
    ................


# 0xea
0x22, 0x4a:
    ................
    .....@..@.......
    ....@....@....@.
    ...@......@...@.
    ..@.@........@..
    @@..@.......@...
    ....@.....@@....
    ....@...@@......
    ................
    .....@@.........
    ..@@@...........
    ....@...........
    @@@@@@@@........
    ....@...........
    ...@............
    .@@.............


# 0xeb
0x22, 0x4b:
    ................
    ................
    ................
    ................
    ................
    ................
    ................
    ................
    ................
    ................
    ................
    ................
    ................
    ................
    ................
    ................


# 0xec
0x22, 0x4c:
    ...@............
    ...@@@@..@@@@@..
    ..@...@.........
    .@....@.@@@@@@@.
    @....@........@.
    ....@........@..
    ...@.@.@....@...
    .@@..@.@..@@....
    ................
    ...@............
    ...@............
    ..@..@..........
    ..@...@.........
    .@...@@.........
    @@@@@..@........
    .......@........


# 0xed
0x22, 0x4d:
    ................
    ......@.........
    ..@...@.........
    ...@.@..@@@@@@@.
    ....@...........
    ...@.@..........
    ..@...@.........
    .@..............
    ................
    ..@......@.@....
    ..@......@.@....
    ..@@.....@.@..@.
    ..@.@....@.@..@.
    ..@..@..@..@.@..
    ..@.....@..@@...
    ..@....@........


# 0xee
0x22, 0x4e:
    ................
    ..@.............
    ..@.....@@......
    @@@@@@@...@...@.
    ..@...@.......@.
    ..@..@.......@..
    ..@........@@...
    ...@@@@..@@.....
    ................
    ....@@..........
    .@@@............
    ...@............
    @@@@@@@.........
    ...@............
    ..@.............
    .@..............


# 0xef
0x22, 0x4f:
    ................
    .@@@............
    ....@@..........
    .@@.............
    ...@@...........
    .....@..........
    @@@.............
    ...@@@..........
    ......@..@....@.
    .........@....@.
    .........@....@.
    .........@....@.
    .............@..
    .............@..
    ............@...
    ...........@....


# 0xf0
0x22, 0x50:
    ...........@....
    ...@.......@@@@.
    ..@.@.....@...@.
    .@...@...@....@.
    @....@.......@..
    ......@.....@...
    ......@....@....
    .......@..@.....
    ..@.............
    ..@@@.....@.@...
    .@..@.....@.@...
    @.@.@.....@.@...
    ...@@.@@@.@.@.@.
    ...@......@.@.@.
    ..@.......@.@@..
    .@.......@......


# 0xf1
0x22, 0x51:
    ................
    @@@@@@@.........
    ......@.........
    ...@..@.@@@@@@@.
    ...@.@..........
    ...@............
    ..@.............
    .@..............
    ................
    ..@.@...........
    ..@.@...........
    ..@.@..@........
    ..@.@..@........
    .@..@.@.........
    .@..@@..........
    @...............


# 0xf2
0x22, 0x52:
    ................
    ..@..@.@........
    ..@..@.@........
    ..@.............
    ..@@@...........
    ..@..@..........
    ..@...@.........
    ..@.............
    ..@........@....
    .........@.@....
    .........@.@....
    .........@.@..@.
    .........@.@..@.
    ........@..@.@..
    ........@..@@...
    .......@........


# 0xf3
0x22, 0x53:
    ................
    ..@.............
    ..@.............
    ..@@@...........
    ..@..@..........
    ..@...@.........
    ..@.............
    ..@.............
    ........@.......
    .........@....@.
    ..........@...@.
    .............@..
    ............@...
    ..........@@....
    ........@@......
    ................


# 0xf4
0x22, 0x54:
    ................
    ...@............
    .@@@@@@.........
    ...@............
    ...@............
    @@@@@@@@........
    ....@...........
    ....@...........
    ....@...........
    ........@@@@@@..
    ........@....@..
    ........@....@..
    ........@....@..
    ........@....@..
    ........@@@@@@..
    ................


# 0xf5
0x22, 0x55:
    ................
    ...@............
    .@@@@@...@@@@@@.
    ...@.....@....@.
    ...@.....@....@.
    @@@@@@@..@....@.
    ....@....@@@@@@.
    ....@...........
    ..@.........@...
    ..@@@.@@@...@...
    .@..@.......@...
    @...@.@@@@.@....
    ...@.....@.@.@..
    ..@......@.@..@.
    .@.@.@..@.@..@@.
    @..@.@.@..@@@.@.


# 0xf6
0x22, 0x56:
    ................
    ...@............
    .@@@@@...@@@@@@.
    ...@.....@....@.
    ...@.....@....@.
    @@@@@@@..@....@.
    ....@....@@@@@@.
    ....@...........
    ................
    @@@@@.......@...
    @...@.......@...
    @...@.@.@.@.@@..
    ....@.@.@.@.@.@.
    ...@......@.@...
    ..@......@..@...
    .@......@...@...


# 0xf7
0x22, 0x57:
    ................
    .@@@@@@.........
    .@....@..@.@..@.
    .@....@..@.@..@.
    ......@..@.@..@.
    .....@.......@..
    ....@.......@...
    ...@......@@....
    ................
    ..@.............
    ..@.............
    ..@@@...........
    ..@..@..........
    ..@...@.........
    ..@.............
    ..@.............


# 0xf8
0x22, 0x58:
    ................
    .@....@.........
    .@....@.@.@..@..
    .@....@.@.@..@..
    .....@..@.@..@..
    .....@......@...
    ....@......@....
    ...@......@.....
    ................
    ..@......@.@....
    ..@......@.@....
    ..@@@....@.@..@.
    ..@..@...@.@..@.
    ..@...@.@..@.@..
    ..@.....@..@@...
    ..@....@........


# 0xf9
0x22, 0x59:
    ................
    ..@..@.@@.......
    ..@...@..@......
    ..@...@@@.......
    ..@...@..@@@@@@.
    ..@....@........
    .@.....@........
    @......@........
    ................
    .@....@....@....
    @@@@@..@...@....
    .@..@....@.@@...
    .@..@....@.@.@..
    .@.@....@..@..@.
    .@.....@...@....
    ..@@..@....@....


# 0xfa
0x22, 0x5a:
    ................
    ...@.@@.........
    ..@.@..@........
    .@..@..@........
    @....@@.@@@@@@@.
    ......@.........
    .......@........
    .......@........
    ................
    ..@...@.@.......
    ...@..@.@.......
    .@..............
    ..@....@........
    ......@.........
    ....@@..........
    .@@@............


# 0xfb
0x22, 0x5b:
    ................
    ..@.............
    ..@@@@@.........
    @@@...@.........
    ..@...@.@@@@@@@.
    ...@.@..........
    ...@............
    ...@............
    ................
    ..@...@.@.......
    ..@...@.@.......
    ..@@@...........
    ..@..@..........
    ..@...@.........
    ..@.............
    ..@.............


# 0xfc
0x22, 0x5c:
    ................
    @@@@@@@.........
    ......@......@..
    ......@.....@...
    .....@....@@....
    .....@..@@.@....
    ....@......@....
    ...@.......@....
    ................
    .........@......
    .........@......
    @@@@@@@..@@@....
    .........@..@...
    .........@...@..
    .........@......
    .........@......


# 0xfd
0x22, 0x5d:
    .....@@@@@......
    ...@@.....@@....
    ..@.........@...
    .@....@@.....@..
    .@...@.@.....@..
    @...@..@......@.
    @......@......@.
    @......@......@.
    @......@......@.
    @......@......@.
    @......@......@.
    .@.....@.....@..
    .@.....@.....@..
    ..@....@....@...
    ...@@.....@@....
    .....@@@@@......


# 0xfe
0x22, 0x5e:
    .....@@@@@......
    ...@@.....@@....
    ..@.........@...
    .@....@@@....@..
    .@...@...@...@..
    @...@.....@...@.
    @...@.....@...@.
    @........@....@.
    @......@@.....@.
    @.....@.......@.
    @....@........@.
    .@..@........@..
    .@..@@@@@@@..@..
    ..@.........@...
    ...@@.....@@....
    .....@@@@@......


# 0xff
0x22, 0x5f:
    .....@@@@@......
    ...@@.....@@....
    ..@.........@...
    .@...@@@@@...@..
    .@..@.....@..@..
    @.........@...@.
    @.........@...@.
    @.....@@@@....@.
    @.........@...@.
    @.........@...@.
    @.........@...@.
    .@..@.....@..@..
    .@...@@@@@...@..
    ..@.........@...
    ...@@.....@@....
    .....@@@@@......


# 0x100
0x22, 0x60:
    .....@@@@@......
    ...@@.....@@....
    ..@.........@...
    .@.....@@....@..
    .@....@.@....@..
    @.....@.@.....@.
    @....@..@.....@.
    @....@..@.....@.
    @...@...@.....@.
    @...@...@.....@.
    @..@....@.....@.
    .@.@@@@@@@@..@..
    .@......@....@..
    ..@.....@...@...
    ...@@.....@@....
    .....@@@@@......


# 0x101
0x22, 0x61:
    .....@@@@@......
    ...@@.....@@....
    ..@.........@...
    .@...@@@@@...@..
    .@...@.......@..
    @....@........@.
    @....@.@@.....@.
    @....@@..@....@.
    @.........@...@.
    @.........@...@.
    @...@.....@...@.
    .@..@.....@..@..
    .@...@...@...@..
    ..@...@@@...@...
    ...@@.....@@....
    .....@@@@@......


# 0x102
0x22, 0x62:
    .....@@@@@......
    ...@@.....@@....
    ..@.........@...
    .@....@@@....@..
    .@...@...@...@..
    @...@.....@...@.
    @...@.........@.
    @...@.@@@.....@.
    @...@@...@....@.
    @...@.....@...@.
    @...@.....@...@.
    .@..@.....@..@..
    .@...@...@...@..
    ..@...@@@...@...
    ...@@.....@@....
    .....@@@@@......


# 0x103
0x22, 0x63:
    .....@@@@@......
    ...@@.....@@....
    ..@.........@...
    .@..@@@@@@@..@..
    .@........@..@..
    @........@....@.
    @........@....@.
    @.......@.....@.
    @.......@.....@.
    @......@......@.
    @......@......@.
    .@....@......@..
    .@....@......@..
    ..@...@.....@...
    ...@@.....@@....
    .....@@@@@......


# 0x104
0x22, 0x64:
    .....@@@@@......
    ...@@.....@@....
    ..@.........@...
    .@....@@@....@..
    .@...@...@...@..
    @....@...@....@.
    @....@...@....@.
    @.....@@@.....@.
    @....@...@....@.
    @...@.....@...@.
    @...@.....@...@.
    .@..@.....@..@..
    .@...@...@...@..
    ..@...@@@...@...
    ...@@.....@@....
    .....@@@@@......


# 0x105
0x22, 0x65:
    .....@@@@@......
    ...@@.....@@....
    ..@.........@...
    .@....@@@....@..
    .@...@...@...@..
    @...@.....@...@.
    @...@.....@...@.
    @...@.....@...@.
    @....@...@@...@.
    @.....@@@.@...@.
    @.........@...@.
    .@..@.....@..@..
    .@...@...@...@..
    ..@...@@@...@...
    ...@@.....@@....
    .....@@@@@......


# 0x106
0x22, 0x66:
    .....@@@@@......
    ...@@.....@@....
    ..@.........@...
    .@..@...@@...@..
    .@.@@..@..@..@..
    @.@.@.@....@..@.
    @...@.@....@..@.
    @...@.@....@..@.
    @...@.@....@..@.
    @...@.@....@..@.
    @...@.@....@..@.
    .@..@..@..@..@..
    .@..@...@@...@..
    ..@.........@...
    ...@@.....@@....
    .....@@@@@......


# 0x107
0x22, 0x67:
    ........@@@@@...
    ........@...@...
    ........@..@....
    ........@.@.....
    ........@.@.....
    ........@.@.....
    ........@.@.....
    ........@.@.....
    ........@.@.....
    ........@.@.....
    ........@.@.....
    ........@.@.....
    ........@.@.....
    ........@..@....
    ........@...@...
    ........@@@@@...


# 0x108
0x22, 0x68:
    ...@@@@@........
    ...@...@........
    ....@..@........
    .....@.@........
    .....@.@........
    .....@.@........
    .....@.@........
    .....@.@........
    .....@.@........
    .....@.@........
    .....@.@........
    .....@.@........
    .....@.@........
    ....@..@........
    ...@...@........
    ...@@@@@........


# 0x109
0x22, 0x69:
    ................
    ..@@@@@@@@@@@...
    ................
    ................
    ..@@@@@@@@@@@...
    .@.....@.....@..
    .@@.@..@..@.@@..
    @..@@..@..@@..@.
    @.@..@.@.@..@.@.
    @.@..@.@.@..@.@.
    .@.@@..@..@@.@..
    .@..@..@..@..@..
    ..@..@...@..@...
    ..@...@@@...@...
    ...@@.....@@....
    .....@@@@@......


# 0x10a
0x22, 0x6a:
    ................
    ................
    ...@@@@@@@@@....
    .@@@@@@@@@@@@@..
    @@@..@...@..@@@.
    @@@..@@@@@..@@@.
    @@...@@@@@...@@.
    ...@@@...@@@....
    ..@@.......@@...
    ..@.........@...
    ..@@.......@@...
    ..@@@@...@@@@...
    ..@@@@@@@@@@@...
    ...@@@@@@@@@....
    ................
    ................


# 0x10b
0x22, 0x6b:
    ................
    @@@@@@@@@@@@@@@.
    @.............@.
    @.............@.
    @.............@.
    @.............@.
    @.............@.
    @.............@.
    @..........@@.@.
    @.........@..@@.
    @........@......
    @........@......
    @.......@.......
    .@......@.......
    ..@@...@........
    ....@@@.........


# 0x10c
0x22, 0x6c:
    .........@@.....
    ........@..@....
    ........@..@....
    ........@.......
    ........@.......
    .......@........
    .......@........
    .......@........
    .......@........
    .......@........
    .......@........
    ......@.........
    ......@.........
    ...@..@.........
    ...@..@.........
    ....@@..........


# 0x10d
0x22, 0x6d:
    ..........@@@@@@
    ..........@.....
    ..........@.....
    .........@......
    .........@......
    .........@......
    .........@......
    ....@...@.......
    ...@@...@.......
    ..@.@...@.......
    ....@...@.......
    .....@.@........
    .....@.@........
    .....@.@........
    ......@.........
    ......@.........


# 0x10e
0x22, 0x6e:
    @@@@@@@@@@@@@@@@
    ................
    ................
    ................
    ................
    ................
    ................
    ................
    ................
    ................
    ................
    ................
    ................
    ................
    ................
    ................


# 0x10f
0x22, 0x6f:
    ................
    ................
    ................
    ................
    ................
    ................
    ................
    ................
    @@@@@@@@@@@@@@@@
    @..............@
    @..............@
    @..............@
    @..............@
    @..............@
    @..............@
    @..............@


# 0x110
0x22, 0x70:
    @..............@
    @..............@
    @..............@
    @..............@
    @..............@
    @..............@
    @..............@
    @..............@
    @..............@
    @..............@
    @..............@
    @..............@
    @..............@
    @..............@
    @..............@
    @..............@


# 0x111
0x22, 0x71:
    @..............@
    @..............@
    @..............@
    @..............@
    @..............@
    @..............@
    @..............@
    @@@@@@@@@@@@@@@@
    ................
    ................
    ................
    ................
    ................
    ................
    ................
    ................


# 0x112
0x22, 0x72:
    ................
    ................
    ................
    ................
    ................
    ................
    ................
    ................
    .....@@@@@......
    ...@@.....@@....
    ..@.........@...
    .@...........@..
    .@...........@..
    @.............@.
    @.............@.
    @.............@.


# 0x113
0x22, 0x73:
    @.............@.
    @.............@.
    @.............@.
    .@...........@..
    .@...........@..
    ..@.........@...
    ...@@.....@@....
    .....@@@@@......
    ................
    ................
    ................
    ................
    ................
    ................
    ................
    ................


# 0x114
0x22, 0x74:
    ........@@@@@@@@
    ........@.......
    ........@.......
    ........@.......
    ........@.......
    ........@.......
    ........@.......
    ........@.......
    ........@.......
    ........@.......
    ........@.......
    ........@.......
    ........@.......
    ........@.......
    ........@.......
    ........@@@@@@@@


# 0x115
0x22, 0x75:
    @@@@@@@@@@@@@@@@
    ................
    ................
    ................
    ................
    ................
    ................
    ................
    ................
    ................
    ................
    ................
    ................
    ................
    ................
    @@@@@@@@@@@@@@@@


# 0x116
0x22, 0x76:
    @@@@@@@.........
    ......@.........
    ......@.........
    ......@.........
    ......@.........
    ......@.........
    ......@.........
    ......@.........
    ......@.........
    ......@.........
    ......@.........
    ......@.........
    ......@.........
    ......@.........
    ......@.........
    @@@@@@@.........


# 0x117
0x22, 0x77:
    .............@@@
    ...........@@...
    ..........@.....
    .........@......
    .........@......
    ........@.......
    ........@.......
    ........@.......
    ........@.......
    ........@.......
    ........@.......
    .........@......
    .........@......
    ..........@.....
    ...........@@...
    .............@@@


# 0x118
0x22, 0x78:
    @@@.............
    ...@@...........
    .....@..........
    ......@.........
    ......@.........
    .......@........
    .......@........
    .......@........
    .......@........
    .......@........
    .......@........
    ......@.........
    ......@.........
    .....@..........
    ...@@...........
    @@@.............


# 0x119
0x22, 0x79:
    .....@@@@@......
    ...@@.....@@....
    ..@.........@...
    .@...........@..
    .@...........@..
    @..@@.@@@..@..@.
    @.@...@..@.@..@.
    @.@...@..@.@..@.
    @.@...@@@..@..@.
    @.@...@.@..@..@.
    @.@...@..@.@..@.
    .@.@@.@..@.@.@..
    .@...........@..
    ..@.........@...
    ...@@.....@@....
    .....@@@@@......


# 0x11a
0x22, 0x7a:
    .....@@@@@......
    ...@@.....@@....
    ..@.........@...
    .@...........@..
    .@...........@..
    @..@@.@@...@..@.
    @.@...@.@.@.@.@.
    @.@...@.@...@.@.
    @.@...@.@..@..@.
    @.@...@@...@..@.
    @.@...@.@.@...@.
    .@.@@.@.@.@@@@..
    .@...........@..
    ..@.........@...
    ...@@.....@@....
    .....@@@@@......


# 0x11b
0x22, 0x7b:
    .....@@@@@......
    ...@@.....@@....
    ..@..@...@..@...
    .@.@@@@.@@@@.@..
    .@..@@...@@..@..
    @..@.@@.@@.@..@.
    @.@..@.@.@..@.@.
    @...@@@@@@@...@.
    @.............@.
    @..@@@@@@@@@..@.
    @......@......@.
    .@..@..@..@..@..
    .@.@...@...@.@..
    ..@...@@....@...
    ...@@.....@@....
    .....@@@@@......


# 0x11c
0x22, 0x7c:
    .....@@@@@......
    ...@@.....@@....
    ..@.........@...
    .@..@....@...@..
    .@..@...@....@..
    @..@@@..@@@@@.@.
    @...@..@....@.@.
    @...@.@.@@..@.@.
    @...@.......@.@.
    @...@.....@.@.@.
    @...@.@.@@..@.@.
    .@.@@@.....@.@..
    .@........@..@..
    ..@.....@@..@...
    ...@@.....@@....
    .....@@@@@......


# 0x11d
0x22, 0x7d:
    .....@@@@@......
    ...@@.....@@....
    ..@....@....@...
    .@....@@@....@..
    .@...@.@.@...@..
    @...@..@..@...@.
    @......@......@.
    @......@......@.
    @......@......@.
    @......@......@.
    @......@......@.
    .@.....@.....@..
    .@.....@.....@..
    ..@....@....@...
    ...@@.....@@....
    .....@@@@@......


# 0x11e
0x22, 0x7e:
    .....@@@@@......
    ...@@.....@@....
    ..@....@....@...
    .@.....@.....@..
    .@.....@.....@..
    @......@......@.
    @......@......@.
    @......@......@.
    @......@......@.
    @......@......@.
    @...@..@..@...@.
    .@...@.@.@...@..
    .@....@@@....@..
    ..@....@....@...
    ...@@.....@@....
    .....@@@@@......


# 0x11f
0x22, 0x7f:
    .....@@@@@......
    ...@@.....@@....
    ..@.........@...
    .@.....@@@...@..
    .@........@..@..
    @..........@..@.
    @...........@.@.
    @...........@.@.
    @...........@.@.
    @...........@.@.
    @......@...@..@.
    .@....@...@..@..
    .@...@@@@@...@..
    ..@...@.....@...
    ...@@..@..@@....
    .....@@@@@......


# 0x120
0x23, 0x20:
    ................
    ................
    ................
    .....@..........
    .....@@.........
    .....@@@........
    .....@@@@.......
    @@@@@@@@@@@@@@@@
    .....@@@@.......
    .....@@@........
    .....@@.........
    .....@..........
    ................
    ................
    ................
    ................


# 0x121
0x23, 0x21:
    ................
    ................
    ................
    ..........@.....
    .........@@.....
    ........@@@.....
    .......@@@@.....
    @@@@@@@@@@@@@@@@
    .......@@@@.....
    ........@@@.....
    .........@@.....
    ..........@.....
    ................
    ................
    ................
    ................


# 0x122
0x23, 0x22:
    ................
    ................
    ................
    ................
    .........@......
    ........@@......
    .......@@@......
    ......@@@@......
    .......@@@......
    ........@@......
    .........@......
    ................
    ................
    ................
    ................
    ................


# 0x123
0x23, 0x23:
    ................
    ................
    ................
    ................
    ................
    ................
    ................
    ..@@@.....@@@...
    ................
    ................
    ................
    ................
    ................
    ................
    ................
    ................


# 0x124
0x23, 0x24:
    ................
    ................
    ................
    ................
    ................
    ................
    ................
    ..@@@.....@@@...
    ..@@@.....@@@...
    ................
    ................
    ................
    ................
    ................
    ................
    ................


# 0x125
0x23, 0x25:
    ................
    ................
    ................
    ................
    ................
    ................
    ................
    .......@........
    .......@........
    ................
    ................
    ................
    ................
    ................
    ................
    ................


# 0x126
0x23, 0x26:
    ................
    ................
    ................
    ................
    .......@........
    .......@........
    ................
    ................
    ................
    ................
    .......@........
    .......@........
    ................
    ................
    ................
    ................


# 0x127
0x23, 0x27:
    ................
    ................
    ........@.......
    ........@@......
    ........@.@.....
    ....@@@@@..@....
    ....@.......@...
    ....@........@..
    ....@........@..
    ....@.......@...
    ....@@@@@..@....
    ........@.@.....
    ........@@......
    ........@.......
    ................
    ................


# 0x128
0x23, 0x28:
    ................
    ................
    ................
    ................
    ................
    ................
    ................
    ................
    ................
    ................
    ................
    ................
    ................
    ................
    ................
    ................


# 0x129
0x23, 0x29:
    ................
    ................
    ................
    ................
    ................
    ................
    ................
    ................
    ................
    ................
    ................
    ................
    ................
    ................
    ................
    ................


# 0x12a
0x23, 0x2a:
    ................
    ................
    ................
    ................
    ................
    ................
    ................
    ................
    ................
    ................
    ................
    ................
    ................
    ................
    ................
    ................


# 0x12b
0x23, 0x2b:
    ................
    ................
    ................
    ................
    ................
    ................
    ................
    ................
    ................
    ................
    ................
    ................
    ................
    ................
    ................
    ................


# 0x12c
0x23, 0x2c:
    ................
    ................
    ................
    ................
    ................
    ................
    ................
    ................
    ................
    ................
    ................
    ................
    ................
    ................
    ................
    ................


# 0x12d
0x23, 0x2d:
    ................
    ................
    ................
    ................
    ................
    ................
    ................
    ................
    ................
    ................
    ................
    ................
    ................
    ................
    ................
    ................


# 0x12e
0x23, 0x2e:
    ................
    ................
    ................
    ................
    ................
    ................
    ................
    ................
    ................
    ................
    ................
    ................
    ................
    ................
    ................
    ................


# 0x12f
0x23, 0x2f:
    ................
    ................
    ................
    ................
    ................
    ................
    ................
    ................
    ................
    ................
    ................
    ................
    ................
    ................
    ................
    ................


# 0x130
0x23, 0x30:
    ................
    .......@@.......
    ......@..@......
    .....@....@.....
    .....@....@.....
    ....@......@....
    ....@......@....
    ....@......@....
    ....@......@....
    ....@......@....
    ....@......@....
    .....@....@.....
    .....@....@.....
    ......@..@......
    .......@@.......
    ................


# 0x131
0x23, 0x31:
    ................
    .......@........
    ......@@........
    .....@.@........
    .......@........
    .......@........
    .......@........
    .......@........
    .......@........
    .......@........
    .......@........
    .......@........
    .......@........
    .......@........
    .....@@@@@......
    ................


# 0x132
0x23, 0x32:
    ................
    ......@@@@......
    .....@....@.....
    ....@......@....
    ....@......@....
    ...........@....
    ...........@....
    ..........@.....
    .........@......
    ........@.......
    .......@........
    ......@.........
    .....@..........
    ....@......@....
    ....@@@@@@@@....
    ................


# 0x133
0x23, 0x33:
    ................
    ......@@@@......
    .....@....@.....
    ....@......@....
    ...........@....
    ...........@....
    ..........@.....
    .......@@@......
    ..........@.....
    ...........@....
    ...........@....
    ....@......@....
    ....@......@....
    .....@....@.....
    ......@@@@......
    ................


# 0x134
0x23, 0x34:
    ................
    ........@@......
    .......@@@......
    .......@.@......
    ......@..@......
    ......@..@......
    .....@...@......
    .....@...@......
    ....@....@......
    ....@....@......
    ...@.....@......
    ...@@@@@@@@@....
    .........@......
    .........@......
    ........@@@.....
    ................


# 0x135
0x23, 0x35:
    ................
    ....@@@@@@@.....
    ....@...........
    ....@...........
    ....@...........
    ....@...........
    ....@.@@@@......
    ....@@....@.....
    ....@......@....
    ...........@....
    ...........@....
    ...........@....
    ....@......@....
    .....@....@.....
    ......@@@@......
    ................


# 0x136
0x23, 0x36:
    ................
    ......@@@@......
    .....@....@.....
    ....@......@....
    ....@...........
    ....@...........
    ....@.@@@@......
    ....@@....@.....
    ....@......@....
    ....@......@....
    ....@......@....
    ....@......@....
    ....@......@....
    .....@....@.....
    ......@@@@......
    ................


# 0x137
0x23, 0x37:
    ................
    ....@@@@@@@@....
    ....@......@....
    ....@......@....
    ..........@.....
    ..........@.....
    .........@......
    .........@......
    ........@.......
    ........@.......
    .......@........
    .......@........
    .......@........
    .......@........
    .......@........
    ................


# 0x138
0x23, 0x38:
    ................
    ......@@@@......
    .....@....@.....
    ....@......@....
    ....@......@....
    ....@......@....
    .....@....@.....
    ......@@@@......
    .....@....@.....
    ....@......@....
    ....@......@....
    ....@......@....
    ....@......@....
    .....@....@.....
    ......@@@@......
    ................


# 0x139
0x23, 0x39:
    ................
    ......@@@@......
    .....@....@.....
    ....@......@....
    ....@......@....
    ....@......@....
    ....@......@....
    ....@......@....
    .....@....@@....
    ......@@@@.@....
    ...........@....
    ...........@....
    ....@......@....
    .....@....@.....
    ......@@@@......
    ................


# 0x13a
0x23, 0x3a:
    ................
    ................
    ................
    ................
    ................
    ................
    ................
    ................
    ................
    ................
    ................
    ................
    ................
    ................
    ................
    ................


# 0x13b
0x23, 0x3b:
    ................
    ................
    ................
    ................
    ................
    ................
    ................
    ................
    ................
    ................
    ................
    ................
    ................
    ................
    ................
    ................


# 0x13c
0x23, 0x3c:
    ................
    ................
    ................
    ................
    ................
    ................
    ................
    ................
    ................
    ................
    ................
    ................
    ................
    ................
    ................
    ................


# 0x13d
0x23, 0x3d:
    ................
    ................
    ................
    ................
    ................
    ................
    ................
    ................
    ................
    ................
    ................
    ................
    ................
    ................
    ................
    ................


# 0x13e
0x23, 0x3e:
    ................
    ................
    ................
    ................
    ................
    ................
    ................
    ................
    ................
    ................
    ................
    ................
    ................
    ................
    ................
    ................


# 0x13f
0x23, 0x3f:
    ................
    ................
    ................
    ................
    ................
    ................
    ................
    ................
    ................
    ................
    ................
    ................
    ................
    ................
    ................
    ................


# 0x140
0x23, 0x40:
    ................
    ................
    ................
    ................
    ................
    ................
    ................
    ................
    ................
    ................
    ................
    ................
    ................
    ................
    ................
    ................


# 0x141
0x23, 0x41:
    ................
    .......@........
    .......@........
    ......@.@.......
    ......@.@.......
    .....@...@......
    .....@...@......
    .....@...@......
    ....@.....@.....
    ....@.....@.....
    ....@@@@@@@.....
    ...@.......@....
    ...@.......@....
    ..@@@.....@@@...
    ................
    ................


# 0x142
0x23, 0x42:
    ................
    ...@@@@@@@......
    ....@.....@.....
    ....@......@....
    ....@......@....
    ....@......@....
    ....@.....@.....
    ....@@@@@@......
    ....@.....@.....
    ....@......@....
    ....@......@....
    ....@......@....
    ....@.....@.....
    ...@@@@@@@......
    ................
    ................


# 0x143
0x23, 0x43:
    ................
    ......@@@@.@....
    .....@....@@....
    ....@......@....
    ....@...........
    ...@............
    ...@............
    ...@............
    ...@............
    ...@............
    ....@......@....
    ....@......@....
    .....@....@.....
    ......@@@@......
    ................
    ................


# 0x144
0x23, 0x44:
    ................
    ...@@@@@@.......
    ....@....@@.....
    ....@......@....
    ....@......@....
    ....@.......@...
    ....@.......@...
    ....@.......@...
    ....@.......@...
    ....@.......@...
    ....@......@....
    ....@......@....
    ....@....@@.....
    ...@@@@@@.......
    ................
    ................


# 0x145
0x23, 0x45:
    ................
    ...@@@@@@@@.....
    ....@......@....
    ....@...........
    ....@...........
    ....@...........
    ....@....@......
    ....@@@@@@......
    ....@....@......
    ....@...........
    ....@...........
    ....@......@....
    ....@.....@.....
    ...@@@@@@@@.....
    ................
    ................


# 0x146
0x23, 0x46:
    ................
    ...@@@@@@@@.....
    ....@......@....
    ....@...........
    ....@...........
    ....@...........
    ....@....@......
    ....@@@@@@......
    ....@....@......
    ....@...........
    ....@...........
    ....@...........
    ....@...........
    ...@@@..........
    ................
    ................


# 0x147
0x23, 0x47:
    ................
    ......@@@@.@....
    .....@....@@....
    ....@......@....
    ....@...........
    ...@............
    ...@............
    ...@............
    ...@.....@@@@...
    ...@.......@....
    ....@......@....
    ....@......@....
    .....@....@@....
    ......@@@@.@....
    ................
    ................


# 0x148
0x23, 0x48:
    ................
    ...@@@....@@@...
    ....@......@....
    ....@......@....
    ....@......@....
    ....@......@....
    ....@......@....
    ....@@@@@@@@....
    ....@......@....
    ....@......@....
    ....@......@....
    ....@......@....
    ....@......@....
    ...@@@....@@@...
    ................
    ................


# 0x149
0x23, 0x49:
    ................
    ......@@@.......
    .......@........
    .......@........
    .......@........
    .......@........
    .......@........
    .......@........
    .......@........
    .......@........
    .......@........
    .......@........
    .......@........
    ......@@@.......
    ................
    ................


# 0x14a
0x23, 0x4a:
    ................
    ........@@@.....
    .........@......
    .........@......
    .........@......
    .........@......
    .........@......
    .........@......
    .........@......
    .........@......
    ....@....@......
    ....@....@......
    .....@..@.......
    ......@@........
    ................
    ................


# 0x14b
0x23, 0x4b:
    ................
    ...@@@....@@@...
    ....@......@....
    ....@.....@.....
    ....@....@......
    ....@...@.......
    ....@..@........
    ....@.@.........
    ....@@.@........
    ....@...@.......
    ....@....@......
    ....@.....@.....
    ....@......@....
    ...@@@....@@@...
    ................
    ................


# 0x14c
0x23, 0x4c:
    ................
    ...@@@..........
    ....@...........
    ....@...........
    ....@...........
    ....@...........
    ....@...........
    ....@...........
    ....@...........
    ....@...........
    ....@...........
    ....@......@....
    ....@.....@.....
    ...@@@@@@@@.....
    ................
    ................


# 0x14d
0x23, 0x4d:
    ................
    .@@.........@@..
    ..@.........@...
    ..@@.......@@...
    ..@@.......@@...
    ..@.@.....@.@...
    ..@.@.....@.@...
    ..@..@...@..@...
    ..@..@...@..@...
    ..@...@.@...@...
    ..@...@.@...@...
    ..@....@....@...
    ..@....@....@...
    .@@@.......@@@..
    ................
    ................


# 0x14e
0x23, 0x4e:
    ................
    ..@@......@@@...
    ...@@......@....
    ...@@......@....
    ...@.@.....@....
    ...@..@....@....
    ...@..@....@....
    ...@...@...@....
    ...@....@..@....
    ...@....@..@....
    ...@.....@.@....
    ...@......@@....
    ...@......@@....
    ..@@@......@....
    ................
    ................


# 0x14f
0x23, 0x4f:
    ................
    .....@@@@@@.....
    ....@......@....
    ...@........@...
    ...@........@...
    ...@........@...
    ...@........@...
    ...@........@...
    ...@........@...
    ...@........@...
    ...@........@...
    ...@........@...
    ....@......@....
    .....@@@@@@.....
    ................
    ................


# 0x150
0x23, 0x50:
    ................
    ...@@@@@@@......
    ....@.....@.....
    ....@......@....
    ....@......@....
    ....@......@....
    ....@.....@.....
    ....@@@@@@......
    ....@...........
    ....@...........
    ....@...........
    ....@...........
    ....@...........
    ...@@@..........
    ................
    ................


# 0x151
0x23, 0x51:
    ................
    ......@@@@......
    .....@....@.....
    ....@......@....
    ....@......@....
    ...@........@...
    ...@........@...
    ...@........@...
    ...@........@...
    ...@........@...
    ....@..@@..@....
    ....@....@.@....
    .....@....@.....
    ......@@@@.@@...
    ................
    ................


# 0x152
0x23, 0x52:
    ................
    ...@@@@@@@......
    ....@.....@.....
    ....@......@....
    ....@......@....
    ....@......@....
    ....@.....@.....
    ....@@@@@@......
    ....@..@........
    ....@...@.......
    ....@....@......
    ....@.....@.....
    ....@......@....
    ...@@@....@@@...
    ................
    ................


# 0x153
0x23, 0x53:
    ................
    ......@@@@.@....
    .....@....@@....
    ....@......@....
    ....@...........
    ....@...........
    .....@@.........
    .......@@.......
    .........@@.....
    ...........@....
    ...........@....
    ....@......@....
    ....@@....@.....
    ....@.@@@@......
    ................
    ................


# 0x154
0x23, 0x54:
    ................
    ...@@@@@@@@@....
    ...@...@...@....
    .......@........
    .......@........
    .......@........
    .......@........
    .......@........
    .......@........
    .......@........
    .......@........
    .......@........
    .......@........
    ......@@@.......
    ................
    ................


# 0x155
0x23, 0x55:
    ................
    ...@@@....@@@...
    ....@......@....
    ....@......@....
    ....@......@....
    ....@......@....
    ....@......@....
    ....@......@....
    ....@......@....
    ....@......@....
    ....@......@....
    ....@......@....
    .....@....@.....
    ......@@@@......
    ................
    ................


# 0x156
0x23, 0x56:
    ................
    ..@@@.....@@@...
    ...@.......@....
    ...@.......@....
    ....@.....@.....
    ....@.....@.....
    ....@.....@.....
    .....@...@......
    .....@...@......
    .....@...@......
    ......@.@.......
    ......@.@.......
    .......@........
    .......@........
    ................
    ................


# 0x157
0x23, 0x57:
    ................
    @@@...@@@...@@@.
    .@.....@.....@..
    .@.....@.....@..
    .@.....@.....@..
    ..@...@.@...@...
    ..@...@.@...@...
    ..@...@.@...@...
    ...@.@...@.@....
    ...@.@...@.@....
    ...@.@...@.@....
    ....@.....@.....
    ....@.....@.....
    ....@.....@.....
    ................
    ................


# 0x158
0x23, 0x58:
    ................
    ..@@@.....@@@...
    ...@.......@....
    ....@.....@.....
    .....@...@......
    .....@...@......
    ......@.@.......
    .......@........
    ......@.@.......
    .....@...@......
    .....@...@......
    ....@.....@.....
    ...@.......@....
    ..@@@.....@@@...
    ................
    ................


# 0x159
0x23, 0x59:
    ................
    ..@@@.....@@@...
    ...@.......@....
    ....@.....@.....
    ....@.....@.....
    .....@...@......
    ......@.@.......
    ......@.@.......
    .......@........
    .......@........
    .......@........
    .......@........
    .......@........
    ......@@@.......
    ................
    ................


# 0x15a
0x23, 0x5a:
    ................
    ...@@@@@@@@.....
    ...@......@.....
    .........@......
    .........@......
    ........@.......
    .......@........
    .......@........
    ......@.........
    .....@..........
    .....@..........
    ....@...........
    ...@.......@....
    ...@@@@@@@@@....
    ................
    ................


# 0x15b
0x23, 0x5b:
    ................
    ................
    ................
    ................
    ................
    ................
    ................
    ................
    ................
    ................
    ................
    ................
    ................
    ................
    ................
    ................


# 0x15c
0x23, 0x5c:
    ................
    ................
    ................
    ................
    ................
    ................
    ................
    ................
    ................
    ................
    ................
    ................
    ................
    ................
    ................
    ................


# 0x15d
0x23, 0x5d:
    ................
    ................
    ................
    ................
    ................
    ................
    ................
    ................
    ................
    ................
    ................
    ................
    ................
    ................
    ................
    ................


# 0x15e
0x23, 0x5e:
    ................
    ................
    ................
    ................
    ................
    ................
    ................
    ................
    ................
    ................
    ................
    ................
    ................
    ................
    ................
    ................


# 0x15f
0x23, 0x5f:
    ................
    ................
    ................
    ................
    ................
    ................
    ................
    ................
    ................
    ................
    ................
    ................
    ................
    ................
    ................
    ................


# 0x160
0x23, 0x60:
    ................
    ................
    ................
    ................
    ................
    ................
    ................
    ................
    ................
    ................
    ................
    ................
    ................
    ................
    ................
    ................


# 0x161
0x23, 0x61:
    ................
    ................
    ................
    ................
    ................
    ......@@@@......
    .....@....@.....
    ..........@.....
    ......@@@.@.....
    .....@...@@.....
    ....@.....@.....
    ....@.....@.....
    .....@...@@.....
    ......@@@.@@....
    ................
    ................


# 0x162
0x23, 0x62:
    ................
    ....@@..........
    .....@..........
    .....@..........
    .....@..........
    .....@.@@@......
    .....@@...@.....
    .....@.....@....
    .....@.....@....
    .....@.....@....
    .....@.....@....
    .....@.....@....
    .....@@...@.....
    .....@.@@@......
    ................
    ................


# 0x163
0x23, 0x63:
    ................
    ................
    ................
    ................
    ................
    ......@@@@......
    .....@....@.....
    ....@...........
    ....@...........
    ....@...........
    ....@...........
    ....@......@....
    .....@....@.....
    ......@@@@......
    ................
    ................


# 0x164
0x23, 0x64:
    ................
    .........@@.....
    ..........@.....
    ..........@.....
    ..........@.....
    ......@@@.@.....
    .....@...@@.....
    ....@.....@.....
    ....@.....@.....
    ....@.....@.....
    ....@.....@.....
    ....@.....@.....
    .....@...@@.....
    ......@@@.@@....
    ................
    ................


# 0x165
0x23, 0x65:
    ................
    ................
    ................
    ................
    ................
    ......@@@@......
    .....@....@.....
    ....@......@....
    ....@......@....
    ....@@@@@@@@....
    ....@...........
    ....@...........
    .....@.....@....
    ......@@@@@.....
    ................
    ................


# 0x166
0x23, 0x66:
    ................
    ........@@......
    .......@..@.....
    .......@........
    .......@........
    .....@@@@@......
    .......@........
    .......@........
    .......@........
    .......@........
    .......@........
    .......@........
    .......@........
    ......@@@.......
    ................
    ................


# 0x167
0x23, 0x67:
    ................
    ................
    ................
    .........@@@....
    .....@@@@..@....
    ....@....@......
    ....@....@......
    ....@....@......
    .....@@@@.......
    .....@..........
    .....@@@@@......
    ....@.....@.....
    ....@.....@.....
    ....@.....@.....
    ....@.....@.....
    .....@@@@@......


# 0x168
0x23, 0x68:
    ................
    ....@@..........
    .....@..........
    .....@..........
    .....@..........
    .....@.@@@......
    .....@@...@.....
    .....@....@.....
    .....@....@.....
    .....@....@.....
    .....@....@.....
    .....@....@.....
    .....@....@.....
    ....@@@..@@@....
    ................
    ................


# 0x169
0x23, 0x69:
    ................
    .......@........
    .......@........
    ................
    ................
    ......@@........
    .......@........
    .......@........
    .......@........
    .......@........
    .......@........
    .......@........
    .......@........
    ......@@@.......
    ................
    ................


# 0x16a
0x23, 0x6a:
    ................
    ........@.......
    ........@.......
    ................
    ................
    .......@@.......
    ........@.......
    ........@.......
    ........@.......
    ........@.......
    ........@.......
    ........@.......
    ........@.......
    .....@..@.......
    .....@..@.......
    ......@@........


# 0x16b
0x23, 0x6b:
    ................
    ....@@..........
    .....@..........
    .....@..........
    .....@..........
    .....@..@@@.....
    .....@...@......
    .....@..@.......
    .....@.@........
    .....@@@........
    .....@..@.......
    .....@...@......
    .....@....@.....
    ....@@@..@@@....
    ................
    ................


# 0x16c
0x23, 0x6c:
    ................
    ......@@........
    .......@........
    .......@........
    .......@........
    .......@........
    .......@........
    .......@........
    .......@........
    .......@........
    .......@........
    .......@........
    .......@........
    ......@@@.......
    ................
    ................


# 0x16d
0x23, 0x6d:
    ................
    ................
    ................
    ................
    ................
    ...@.@@..@@.....
    ...@@..@@..@....
    ...@...@...@....
    ...@...@...@....
    ...@...@...@....
    ...@...@...@....
    ...@...@...@....
    ...@...@...@....
    ..@@@..@..@@@...
    ................
    ................


# 0x16e
0x23, 0x6e:
    ................
    ................
    ................
    ................
    ................
    ....@@.@@@......
    .....@@...@.....
    .....@....@.....
    .....@....@.....
    .....@....@.....
    .....@....@.....
    .....@....@.....
    .....@....@.....
    ....@@@..@@@....
    ................
    ................


# 0x16f
0x23, 0x6f:
    ................
    ................
    ................
    ................
    ................
    ......@@@@......
    .....@....@.....
    ....@......@....
    ....@......@....
    ....@......@....
    ....@......@....
    ....@......@....
    .....@....@.....
    ......@@@@......
    ................
    ................


# 0x170
0x23, 0x70:
    ................
    ................
    ................
    ................
    ................
    .....@.@@@......
    .....@@...@.....
    .....@.....@....
    .....@.....@....
    .....@.....@....
    .....@.....@....
    .....@@...@.....
    .....@.@@@......
    .....@..........
    .....@..........
    ....@@@.........


# 0x171
0x23, 0x71:
    ................
    ................
    ................
    ................
    ................
    ......@@@.@.....
    .....@...@@.....
    ....@.....@.....
    ....@.....@.....
    ....@.....@.....
    ....@.....@.....
    .....@...@@.....
    ......@@@.@.....
    ..........@.....
    ..........@.....
    .........@@@....


# 0x172
0x23, 0x72:
    ................
    ................
    ................
    ................
    ................
    ....@..@@@......
    .....@@...@.....
    .....@..........
    .....@..........
    .....@..........
    .....@..........
    .....@..........
    .....@..........
    ....@@@.........
    ................
    ................


# 0x173
0x23, 0x73:
    ................
    ................
    ................
    ................
    ................
    ......@@@@.@....
    .....@....@@....
    ....@......@....
    .....@..........
    ......@@@@......
    ..........@.....
    ....@......@....
    ....@@....@.....
    ....@.@@@@......
    ................
    ................


# 0x174
0x23, 0x74:
    ................
    .......@........
    .......@........
    .......@........
    .......@........
    .....@@@@@......
    .......@........
    .......@........
    .......@........
    .......@........
    .......@........
    .......@........
    .......@..@.....
    ........@@......
    ................
    ................


# 0x175
0x23, 0x75:
    ................
    ................
    ................
    ................
    ................
    ....@@...@@.....
    .....@....@.....
    .....@....@.....
    .....@....@.....
    .....@....@.....
    .....@....@.....
    .....@....@.....
    .....@...@@.....
    ......@@@.@@....
    ................
    ................


# 0x176
0x23, 0x76:
    ................
    ................
    ................
    ................
    ................
    ...@@@...@@@....
    ....@.....@.....
    ....@.....@.....
    .....@...@......
    .....@...@......
    ......@.@.......
    ......@.@.......
    .......@........
    .......@........
    ................
    ................


# 0x177
0x23, 0x77:
    ................
    ................
    ................
    ................
    ................
    .@@@...@...@@@..
    ..@....@....@...
    ..@....@....@...
    ..@...@.@...@...
    ...@..@.@..@....
    ...@.@...@.@....
    ...@.@...@.@....
    ....@.....@.....
    ....@.....@.....
    ................
    ................


# 0x178
0x23, 0x78:
    ................
    ................
    ................
    ................
    ................
    ...@@@...@@@....
    ....@.....@.....
    .....@...@......
    ......@.@.......
    .......@........
    ......@.@.......
    .....@...@......
    ....@.....@.....
    ...@@@...@@@....
    ................
    ................


# 0x179
0x23, 0x79:
    ................
    ................
    ................
    ................
    ................
    ...@@@...@@@....
    ....@.....@.....
    ....@.....@.....
    .....@...@......
    .....@...@......
    ......@.@.......
    ......@.@.......
    .......@........
    .......@........
    ...@..@.........
    ....@@..........


# 0x17a
0x23, 0x7a:
    ................
    ................
    ................
    ................
    ................
    ....@@@@@@@.....
    ....@.....@.....
    .........@......
    ........@.......
    .......@........
    ......@.........
    .....@..........
    ....@......@....
    ....@@@@@@@@....
    ................
    ................


# 0x17b
0x23, 0x7b:
    ................
    ................
    ................
    ................
    ................
    ................
    ................
    ................
    ................
    ................
    ................
    ................
    ................
    ................
    ................
    ................


# 0x17c
0x23, 0x7c:
    ................
    ................
    ................
    ................
    ................
    ................
    ................
    ................
    ................
    ................
    ................
    ................
    ................
    ................
    ................
    ................


# 0x17d
0x23, 0x7d:
    ................
    ................
    ................
    ................
    ................
    ................
    ................
    ................
    ................
    ................
    ................
    ................
    ................
    ................
    ................
    ................


# 0x17e
0x23, 0x7e:
    ................
    ................
    ................
    ................
    ................
    ................
    ................
    ................
    ................
    ................
    ................
    ................
    ................
    ................
    ................
    ................


# 0x17f
0x23, 0x7f:
    ................
    @@@@@@@@@@@@@@@.
    @@@@@.....@@@@@.
    @@@..@@@....@@@.
    @@..@........@@.
    @@.@.........@@.
    @.@...........@.
    @.@...........@.
    @.@...........@.
    @.@...........@.
    @..@..@.......@.
    @@..@..@.....@@.
    @@...@@@@....@@.
    @@@....@....@@@.
    @@@@@.@...@@@@@.
    @@@@@@@@@@@@@@@.


# 0x180
0x24, 0x20:
    .....@@@@@......
    ...@@.....@@....
    ..@.........@...
    .@...........@..
    .@...........@..
    @@@@@.@@..@@..@.
    @..@.@..@.@.@.@.
    @..@.@..@.@.@.@.
    @..@.@..@.@@..@.
    @..@.@@@@.@.@.@.
    @..@.@..@.@.@.@.
    .@.@.@..@.@@.@..
    .@...........@..
    ..@.........@...
    ...@@.....@@....
    .....@@@@@......


# 0x181
0x24, 0x21:
    ................
    ................
    ................
    ......@.........
    ......@.........
    ......@@@@@@....
    ...@@@@.........
    ......@@@@@.....
    ....@@@....@....
    ...@..@...@.@...
    ..@...@..@..@...
    ..@...@.@...@...
    ..@...@@....@...
    ...@@@.....@....
    .........@@.....
    ................


# 0x182
0x24, 0x22:
    ................
    ....@...........
    .....@......@...
    ..@..@....@@....
    ...@@@@@@@......
    .....@..........
    .....@@@@@......
    ....@@....@@....
    ...@.@...@..@...
    ..@..@...@...@..
    .@...@..@....@..
    .@....@@.....@..
    .@....@......@..
    ..@..@......@...
    ...@@.....@@....
    ........@@......


# 0x183
0x24, 0x23:
    ................
    ................
    ................
    ................
    ................
    ...@............
    ...@......@.....
    ..@........@....
    ..@........@....
    ..@...@.....@...
    ..@..@......@...
    ..@..@......@...
    ...@@...........
    ....@...........
    ................
    ................


# 0x184
0x24, 0x24:
    ................
    ................
    ..@.............
    ..@......@......
    ..@.......@.....
    .@.........@....
    .@..........@...
    .@....@.....@...
    .@....@......@..
    .@...@.......@..
    .@...@.......@..
    .@..@...........
    ..@.@...........
    ..@@@...........
    ...@............
    ................


# 0x185
0x24, 0x25:
    ................
    ................
    ................
    ....@...........
    .....@@@@@......
    ................
    .......@@@......
    ...@.@@...@.....
    ....@......@....
    ...........@....
    ...........@....
    ..........@.....
    .........@......
    .......@@.......
    .....@@.........
    ................


# 0x186
0x24, 0x26:
    ................
    ....@@@@........
    ........@@@.....
    ................
    ................
    .......@@@@.....
    ..@..@@....@....
    ...@@.......@...
    ............@...
    ............@...
    ............@...
    ...........@....
    ...........@....
    .........@@.....
    .......@@.......
    ....@@@.........


# 0x187
0x24, 0x27:
    ................
    ................
    ................
    ................
    .....@..........
    ......@@@.......
    ................
    ...@...@@@@.....
    ....@@@..@......
    ........@.......
    .......@........
    ......@.@.......
    .....@..@.......
    ....@...@.......
    ...@.....@@@....
    ................


# 0x188
0x24, 0x28:
    ................
    ....@@@.........
    .......@@@......
    ..........@.....
    ................
    ..@....@@@@.....
    ...@@@@..@......
    ........@.......
    .......@........
    ......@@@.......
    .....@...@......
    ....@....@......
    ...@.....@......
    ..@......@......
    .@........@@@@..
    ................


# 0x189
0x24, 0x29:
    ................
    ................
    ................
    ......@.........
    ......@.........
    ..@...@@@..@....
    ...@@@@.....@...
    ......@.....@...
    ....@@@@@@......
    ...@..@...@.....
    ..@...@....@....
    ..@...@....@....
    ..@...@....@....
    ...@@@....@.....
    ........@@......
    ................


# 0x18a
0x24, 0x2a:
    ................
    ....@...........
    .....@.....@....
    .....@...@..@...
    .@...@@@@....@..
    ..@@@@.......@..
    .....@..........
    .....@@@@@......
    ...@@@....@@....
    ..@..@......@...
    .@...@......@...
    .@...@......@...
    .@...@......@...
    ..@..@.....@....
    ...@@....@@.....
    ................


# 0x18b
0x24, 0x2b:
    ................
    .....@..........
    ......@.........
    ......@...@.....
    ......@....@....
    .@....@@@...@...
    ..@@@@...@..@...
    .....@...@...@..
    .....@...@...@..
    ....@....@...@..
    ....@....@......
    ...@.....@......
    ...@....@.......
    ..@..@@.@.......
    .......@........
    ................


# 0x18c
0x24, 0x2c:
    ..........@..@..
    .....@.....@..@.
    ......@....@..@.
    ......@.........
    ......@....@....
    .@....@@@...@...
    ..@@@@...@..@...
    .....@...@...@..
    .....@...@...@..
    ....@....@...@..
    ....@....@......
    ...@.....@......
    ...@....@.......
    ..@..@@.@.......
    .......@........
    ................


# 0x18d
0x24, 0x2d:
    ................
    .......@........
    .......@....@...
    ..@.....@@@@....
    ...@@@@@@.......
    ........@....@..
    .@.......@@@@...
    ..@@@@@@@@......
    ..........@.....
    .....@@@@.@.....
    ...@@....@@@....
    ..@........@....
    ..@.............
    ...@@...........
    .....@@@@@......
    ................


# 0x18e
0x24, 0x2e:
    .............@..
    ......@....@..@.
    ......@.....@.@.
    .@.....@@@@.@...
    ..@@@@@@........
    .......@....@...
    @.......@@@@....
    .@@@@@@@@.......
    .........@......
    ....@@@@.@......
    ..@@....@@@.....
    .@........@.....
    .@..............
    ..@@............
    ....@@@@@.......
    ................


# 0x18f
0x24, 0x2f:
    ................
    ..........@.....
    .........@......
    ........@.......
    ......@@........
    .....@..........
    ...@@...........
    ..@.............
    ..@.............
    ...@@...........
    .....@..........
    ......@@........
    ........@.......
    .........@......
    ..........@.....
    ...........@....


# 0x190
0x24, 0x30:
    ................
    ..........@.....
    .........@......
    ........@....@..
    ......@@..@...@.
    .....@.....@..@.
    ...@@......@....
    ..@.............
    ..@.............
    ...@@...........
    .....@..........
    ......@@........
    ........@.......
    .........@......
    ..........@.....
    ...........@....


# 0x191
0x24, 0x31:
    ................
    .........@......
    ..@.......@.....
    ..@.......@.....
    .@........@..@..
    .@...@....@@@...
    .@....@@@@@.....
    .@........@.....
    .@........@.....
    .@........@.....
    .@..@.....@.....
    .@.@.....@......
    ..@......@......
    ..@.....@.......
    .......@........
    ................


# 0x192
0x24, 0x32:
    ...........@.@..
    ............@.@.
    ..@......@..@.@.
    ..@.......@.....
    .@........@..@..
    .@...@....@@@...
    .@....@@@@@.....
    .@........@.....
    .@........@.....
    .@........@.....
    .@..@.....@.....
    .@.@.....@......
    ..@......@......
    ..@.....@.......
    .......@........
    ................


# 0x193
0x24, 0x33:
    ................
    ................
    ....@.......@...
    .....@@@@@@@....
    ................
    ................
    ................
    ....@...........
    ...@............
    ..@.............
    ..@.............
    ..@.............
    ..@.............
    ...@@.......@...
    .....@@@@@@@....
    ................


# 0x194
0x24, 0x34:
    .............@..
    ...........@..@.
    ...@........@.@.
    ....@@@@@@@.@...
    ................
    ................
    ................
    ...@............
    ..@.............
    .@..............
    .@..............
    .@..............
    .@..............
    ..@@.......@....
    ....@@@@@@@.....
    ................


# 0x195
0x24, 0x35:
    ................
    .......@........
    .......@........
    ........@...@...
    .@......@@@@....
    ..@@@@@@@.......
    .........@......
    .........@......
    .....@@@@.@.....
    ...@@....@@.....
    ..@........@....
    ..@.............
    ..@.............
    ...@@...........
    .....@@@@@......
    ................


# 0x196
0x24, 0x36:
    ..........@..@..
    .......@...@..@.
    .......@...@..@.
    ........@...@...
    .@......@@@@....
    ..@@@@@@@.......
    .........@......
    .........@......
    .....@@@@.@.....
    ...@@....@@.....
    ..@........@....
    ..@.............
    ..@.............
    ...@@...........
    .....@@@@@......
    ................


# 0x197
0x24, 0x37:
    ................
    ...@............
    ...@............
    ...@............
    ...@............
    ...@............
    ...@............
    ...@............
    ...@.........@..
    ...@.........@..
    ...@........@...
    ...@........@...
    ...@.......@....
    ....@@...@@.....
    ......@@@.......
    ................


# 0x198
0x24, 0x38:
    ................
    ...@............
    ...@.......@....
    ...@....@...@...
    ...@.....@..@...
    ...@.....@......
    ...@............
    ...@............
    ...@.........@..
    ...@.........@..
    ...@........@...
    ...@........@...
    ...@.......@....
    ....@@...@@.....
    ......@@@.......
    ................


# 0x199
0x24, 0x39:
    ................
    ........@.......
    .........@...@..
    .@.......@@@@...
    ..@@@@@@@@......
    .........@......
    ......@@.@......
    .....@..@@......
    .....@...@......
    .....@..@@......
    ......@@.@......
    .........@......
    ........@.......
    .......@........
    ......@.........
    ................


# 0x19a
0x24, 0x3a:
    ..........@..@..
    .......@...@..@.
    ........@..@....
    @.......@....@@.
    .@@@@@@@@@@@@...
    ........@.......
    .....@@.@.......
    ....@..@@.......
    ....@...@.......
    ....@..@@.......
    .....@@.@.......
    ........@.......
    .......@........
    ......@.........
    .....@..........
    ................


# 0x19b
0x24, 0x3b:
    .........@......
    ...@......@.....
    ....@.....@.....
    ....@.....@..@..
    ....@.....@@@...
    @...@@@@@@@.....
    .@@@@.....@.....
    ....@.....@.....
    ....@..@..@.....
    ....@...@@@.....
    ....@....@......
    ....@...........
    ....@...........
    .....@@.........
    .......@@@@@@...
    ................


# 0x19c
0x24, 0x3c:
    ..........@..@..
    ...........@..@.
    ...@.....@.@..@.
    ....@.....@.....
    ....@.....@..@..
    @...@@@@@@@@@...
    .@@@@.....@.....
    ....@.....@.....
    ....@..@..@.....
    ....@...@@@.....
    ....@....@......
    ....@...........
    ....@...........
    .....@@.........
    .......@@@@@@...
    ................


# 0x19d
0x24, 0x3d:
    ................
    ..@....@@@@.....
    ...@@@@...@.....
    ........@@......
    .......@........
    .....@@.........
    ....@.....@@@@..
    @..@@@@@@@......
    .@@....@........
    ......@.........
    ......@.........
    .....@..........
    .....@..........
    .....@..........
    ......@@........
    ........@@@.....


# 0x19e
0x24, 0x3e:
    ................
    ..@...@@@@...@..
    ...@@@...@.@..@.
    ........@...@.@.
    .......@....@...
    .....@@.........
    ....@.....@@@@..
    @..@@@@@@@......
    .@@....@........
    ......@.........
    ......@.........
    .....@..........
    .....@..........
    .....@..........
    ......@@........
    ........@@@.....


# 0x19f
0x24, 0x3f:
    ................
    ...@............
    ....@...@.......
    @...@@@@........
    .@@@@...........
    ....@...@@@@....
    ....@..@....@...
    ....@...........
    ...@............
    ...@............
    ...@..@.........
    ..@...@.........
    ..@....@@.......
    .@.......@@@@...
    .@..............
    ................


# 0x1a0
0x24, 0x40:
    ............@...
    ...@......@..@..
    ....@...@..@.@..
    @...@@@@...@....
    .@@@@...........
    ....@...@@@@....
    ....@..@....@...
    ....@...........
    ...@............
    ...@............
    ...@..@.........
    ..@...@.........
    ..@....@@.......
    .@.......@@@@...
    .@..............
    ................


# 0x1a1
0x24, 0x41:
    ................
    ...@............
    ....@......@....
    .@..@....@@.....
    ..@@@@@@@.......
    ....@...........
    ....@...........
    ...@...@@@@.....
    ...@.@@....@....
    ...@@.......@...
    ..@.........@...
    ..@.........@...
    ...........@....
    .........@@.....
    .....@@@@.......
    ................


# 0x1a2
0x24, 0x42:
    ..........@..@..
    ...@.......@..@.
    ....@......@..@.
    .@..@....@@.....
    ..@@@@@@@.......
    ....@...........
    ....@...........
    ...@...@@@@.....
    ...@.@@....@....
    ...@@.......@...
    ..@.........@...
    ..@.........@...
    ...........@....
    .........@@.....
    .....@@@@.......
    ................


# 0x1a3
0x24, 0x43:
    ................
    ................
    ................
    ................
    ................
    ......@@@@......
    .@..@@....@.....
    ..@@.......@....
    ...........@....
    ...........@....
    ...........@....
    ..........@.....
    ........@@......
    .....@@@........
    ................
    ................


# 0x1a4
0x24, 0x44:
    ................
    ................
    ................
    ......@@@@......
    .@..@@....@@....
    ..@@........@...
    .............@..
    .............@..
    .............@..
    ............@...
    ............@...
    ...........@....
    .........@@.....
    .....@@@@.......
    ................
    ................


# 0x1a5
0x24, 0x45:
    ..........@..@..
    ...........@..@.
    ...........@..@.
    ......@@@@......
    .@..@@....@@....
    ..@@........@...
    .............@..
    .............@..
    .............@..
    ............@...
    ............@...
    ...........@....
    .........@@.....
    .....@@@@.......
    ................
    ................


# 0x1a6
0x24, 0x46:
    ................
    ............@...
    .@....@@@@@@@@..
    ..@@@@...@......
    ........@.......
    .......@........
    ......@.........
    ......@.........
    .....@..........
    .....@..........
    .....@..........
    ......@.........
    ......@.........
    .......@@.......
    .........@@.....
    ................


# 0x1a7
0x24, 0x47:
    ................
    ............@...
    .@....@@@@@@@@..
    ..@@@@...@......
    ........@.......
    .......@..@..@..
    ......@....@..@.
    ......@....@..@.
    .....@..........
    .....@..........
    .....@..........
    ......@.........
    ......@.........
    .......@@.......
    .........@@.....
    ................


# 0x1a8
0x24, 0x48:
    ................
    .....@..........
    .....@..........
    .....@..........
    .....@..........
    .....@.....@@...
    .....@..@@@.....
    ......@@........
    ....@@..........
    ...@............
    ..@.............
    ..@.............
    ..@.............
    ...@@...........
    .....@@@@@@@@...
    ................


# 0x1a9
0x24, 0x49:
    ...........@....
    .....@...@..@...
    .....@....@.@...
    .....@....@.....
    .....@..........
    .....@.....@@...
    .....@..@@@.....
    ......@@........
    ....@@..........
    ...@............
    ..@.............
    ..@.............
    ..@.............
    ...@@...........
    .....@@@@@@@@...
    ................


# 0x1aa
0x24, 0x4a:
    ................
    ....@...........
    .....@..@.......
    .@...@@@........
    ..@@@...........
    ....@...@@@@....
    ....@.......@...
    ...@.......@@...
    ...@......@.....
    ..@.......@.....
    ..@.......@.....
    .@....@@@@@.....
    .....@....@@@...
    .....@....@..@..
    ......@@@@......
    ................


# 0x1ab
0x24, 0x4b:
    ................
    ...@............
    ...@.........@..
    ..@...@@@@@@@...
    ..@.......@.....
    ..@......@......
    ..@.............
    ..@.............
    ..@.............
    ..@..@..@.......
    ..@.@..@........
    ..@.@..@........
    ..@@...@.....@..
    ...@....@@@@@...
    ...@............
    ................


# 0x1ac
0x24, 0x4c:
    ................
    ........@.......
    ..@.....@.......
    ..@...@@@@@.....
    ..@..@..@..@....
    ...@@...@...@...
    ..@@...@.....@..
    ..@.@..@.....@..
    .@..@..@.....@..
    .@..@..@.....@..
    .@...@@......@..
    .@...@@..@@@.@..
    ..@..@..@...@@..
    ...@@...@...@.@.
    .........@@@....
    ................


# 0x1ad
0x24, 0x4d:
    ................
    ...@............
    ....@...........
    ....@@..@@@.....
    @..@@@.@...@....
    .@@.@.@.....@...
    ....@@......@...
    ...@@.......@...
    ...@@.......@...
    @.@.@.......@...
    .@..@...@@@.@...
    ....@..@...@@...
    ....@..@...@@...
    ....@...@@@..@..
    ....@...........
    ................


# 0x1ae
0x24, 0x4e:
    ................
    ................
    .....@@@@@......
    ...@@..@..@@....
    ..@....@....@...
    ..@....@.....@..
    .@....@......@..
    .@....@......@..
    .@....@......@..
    .@....@......@..
    .@...@.......@..
    ..@..@......@...
    ...@@......@....
    .........@@.....
    ................
    ................


# 0x1af
0x24, 0x4f:
    ................
    ...@.....@......
    ...@......@.....
    ..@.......@..@..
    ..@..@....@@@...
    ..@...@@@@@.....
    ..@.......@.....
    ..@.......@.....
    ..@.......@.....
    ..@.......@.....
    ..@..@....@.....
    ..@.@..@@@@@....
    ..@.@.@...@.@...
    ..@@..@...@..@..
    ...@...@@@......
    ................


# 0x1b0
0x24, 0x50:
    ..........@..@..
    ...........@..@.
    ...@.....@.@..@.
    ...@......@.....
    ..@.......@..@..
    ..@..@....@@@...
    ..@...@@@@@.....
    ..@.......@.....
    ..@.......@.....
    ..@.......@.....
    ..@..@....@.....
    ..@.@..@@@@@....
    ..@.@.@...@.@...
    ...@..@...@..@..
    ...@...@@@......
    ................


# 0x1b1
0x24, 0x51:
    ............@@..
    ...........@..@.
    ...@.....@.@..@.
    ...@......@.@@..
    ..@.......@..@..
    ..@..@....@@@...
    ..@...@@@@@.....
    ..@.......@.....
    ..@.......@.....
    ..@.......@.....
    ..@..@....@.....
    ..@.@..@@@@@....
    ..@.@.@...@.@...
    ...@..@...@..@..
    ...@...@@@......
    ................


# 0x1b2
0x24, 0x52:
    ................
    ................
    @...@@....@.....
    .@@@.@....@.....
    ....@......@....
    ...@.......@@...
    ...@.......@.@..
    ..@........@..@.
    ..@........@....
    ..@........@....
    ..@........@....
    ..@.......@.....
    ...@......@.....
    ....@....@......
    .....@@@@.......
    ................


# 0x1b3
0x24, 0x53:
    ...........@.@..
    ............@.@.
    @...@@....@.@.@.
    .@@@.@....@.....
    ....@......@....
    ...@.......@@...
    ...@.......@.@..
    ..@........@..@.
    ..@........@....
    ..@........@....
    ..@........@....
    ..@.......@.....
    ...@......@.....
    ....@....@......
    .....@@@@.......
    ................


# 0x1b4
0x24, 0x54:
    ............@@..
    ...........@..@.
    @...@@....@@..@.
    .@@@.@....@.@@..
    ....@......@....
    ...@.......@@...
    ...@.......@.@..
    ..@........@..@.
    ..@........@....
    ..@........@....
    ..@........@....
    ..@.......@.....
    ...@......@.....
    ....@....@......
    .....@@@@.......
    ................


# 0x1b5
0x24, 0x55:
    ................
    ....@@..........
    ......@@........
    ........@@......
    .......@........
    ......@.........
    ......@.........
    .......@........
    ...@...@....@...
    ..@.....@....@..
    .@......@....@..
    .@......@.....@.
    @...@@..@.....@.
    @.....@@@.......
    .......@........
    ................


# 0x1b6
0x24, 0x56:
    ..........@..@..
    ....@@.....@..@.
    ......@@...@..@.
    ........@@......
    .......@........
    ......@.........
    ......@.........
    .......@........
    ...@...@....@...
    ..@.....@....@..
    .@......@....@..
    .@......@.....@.
    @...@@..@.....@.
    @.....@@@.......
    .......@........
    ................


# 0x1b7
0x24, 0x57:
    ............@@..
    ....@@.....@..@.
    ......@@...@..@.
    ........@@..@@..
    .......@........
    ......@.........
    ......@.........
    .......@........
    ...@...@....@...
    ..@.....@....@..
    .@......@....@..
    .@......@.....@.
    @...@@..@.....@.
    @.....@@@.......
    .......@........
    ................


# 0x1b8
0x24, 0x58:
    ................
    ................
    ................
    ......@@........
    .....@..@.......
    ....@....@......
    .@.@......@.....
    ..@.......@.....
    ...........@....
    ............@...
    .............@@.
    ................
    ................
    ................
    ................
    ................


# 0x1b9
0x24, 0x59:
    ................
    ................
    ..........@..@..
    ...........@..@.
    ......@@...@..@.
    .....@..@.......
    ....@....@......
    .@.@......@.....
    ..@.......@.....
    ...........@....
    ............@...
    .............@@.
    ................
    ................
    ................
    ................


# 0x1ba
0x24, 0x5a:
    ................
    ................
    ............@@..
    ...........@..@.
    ......@@...@..@.
    .....@..@...@@..
    ....@....@......
    .@.@......@.....
    ..@.......@.....
    ...........@....
    ............@...
    .............@@.
    ................
    ................
    ................
    ................


# 0x1bb
0x24, 0x5b:
    ................
    ............@...
    ..@...@@@@@@....
    ..@.......@.....
    .@........@.....
    .@...@....@..@..
    .@....@@@@@@@...
    .@........@.....
    .@........@.....
    .@........@.....
    .@..@.....@.....
    .@.@..@@@@@.....
    .@.@.@....@@@...
    .@@..@....@..@..
    ..@...@@@@......
    ................


# 0x1bc
0x24, 0x5c:
    ..........@..@..
    ...........@..@.
    ...........@@.@.
    ..@...@@@@@@....
    ..@.......@.....
    .@........@.....
    .@...@....@..@..
    .@....@@@@@@@...
    .@........@.....
    .@........@.....
    .@..@.....@.....
    .@.@..@@@@@.....
    .@.@.@....@@@...
    .@@..@....@..@..
    ..@...@@@@......
    ................


# 0x1bd
0x24, 0x5d:
    ............@@..
    ...........@..@.
    ...........@..@.
    ..@...@@@@@@@@..
    ..@.......@.....
    .@........@.....
    .@...@....@..@..
    .@....@@@@@@@...
    .@........@.....
    .@........@.....
    .@..@.....@.....
    .@.@..@@@@@.....
    .@.@.@....@@@...
    .@@..@....@..@..
    ..@...@@@@......
    ................


# 0x1be
0x24, 0x5e:
    ................
    .......@........
    ........@...@...
    ..@.....@@@@....
    ...@@@@@@.......
    ........@.......
    ........@...@...
    ...@....@@@@....
    ....@@@@@.......
    ........@.......
    ........@.......
    ...@@@@@@@......
    ..@.....@.@@....
    ..@.....@...@...
    ...@@@@@........
    ................


# 0x1bf
0x24, 0x5f:
    ................
    ......@@........
    ..@@@@.@@.......
    ...@...@........
    .......@...@....
    .......@....@...
    ......@.....@...
    ....@@@@@...@...
    ...@..@..@@.@...
    ..@...@....@@...
    .@...@.....@.@..
    .@...@....@...@.
    .@..@.....@.....
    ..@@.....@......
    ........@.......
    ................


# 0x1c0
0x24, 0x60:
    ................
    .....@..........
    .....@..@.......
    .@...@@@........
    ..@@@@....@@....
    .....@......@@..
    ....@.........@.
    ..@@@...........
    .@..@.....@.....
    .@..@......@....
    .@..@.......@...
    ..@@@.......@...
    ....@.......@...
    ....@.....@@....
    .....@@@@@......
    ................


# 0x1c1
0x24, 0x61:
    ................
    ...@.....@......
    ...@.....@......
    ...@..@@@@@.....
    ....@@..@..@....
    ...@@...@...@...
    ..@.@...@...@...
    ..@.@...@....@..
    .@...@.@.....@..
    .@...@.@.....@..
    .@....@......@..
    .@....@.....@...
    ..@..@......@...
    ...@@......@....
    ..........@.....
    ................


# 0x1c2
0x24, 0x62:
    ......@.........
    ......@.........
    ......@..@......
    ..@...@@@.......
    ...@@@..........
    .....@..........
    .....@...@......
    .@...@@@@...@...
    ..@@@........@..
    ....@........@..
    ....@........@..
    ....@........@..
    ....@.......@...
    .....@@....@....
    .......@@@@.....
    ................


# 0x1c3
0x24, 0x63:
    ................
    ................
    ................
    ................
    ...@...@........
    ....@...@.......
    ....@...@@@.....
    ....@@@@@..@....
    .@@@@...@...@...
    .....@......@...
    .....@..@..@....
    .....@...@@.....
    .....@..........
    ......@.........
    ......@.........
    ......@.........


# 0x1c4
0x24, 0x64:
    ................
    ...@...@........
    ....@...@.......
    ....@...@.......
    ....@..@@@@@....
    ....@@@.@...@...
    @.@@@....@...@..
    .@..@....@...@..
    ....@........@..
    .....@......@...
    .....@....@@....
    .....@..........
    ......@.........
    ......@.........
    ......@.........
    ......@.........


# 0x1c5
0x24, 0x65:
    ................
    ................
    ................
    .......@........
    ........@.......
    ...@....@.......
    ..@...@@@@@.....
    ..@..@..@..@....
    ..@.@...@...@...
    ..@@....@...@...
    ..@.....@...@...
    ..@..@..@..@....
    ...@..@@@@@.....
    .......@........
    ......@.........
    .....@..........


# 0x1c6
0x24, 0x66:
    ................
    .......@........
    ...@....@.......
    ..@.....@.......
    ..@....@@@@@....
    .@...@@.@...@...
    .@..@...@....@..
    .@.@....@....@..
    .@@.....@....@..
    .@@.....@....@..
    .@..@...@...@...
    .@...@..@..@....
    ..@...@@@@@.....
    .......@........
    ......@.........
    ....@@..........


# 0x1c7
0x24, 0x67:
    ................
    ................
    ................
    ................
    ......@.........
    .......@........
    .......@..@.....
    .......@@@......
    .......@........
    .......@........
    .......@........
    ....@@@@@.......
    ...@...@.@......
    ...@...@..@.....
    ....@@@.........
    ................


# 0x1c8
0x24, 0x68:
    ................
    ......@.........
    .......@........
    .......@........
    .......@....@...
    .......@..@@....
    .......@@@......
    .......@........
    .......@........
    .......@........
    ...@@@@@........
    ..@....@@@......
    ..@....@..@@....
    ..@....@....@...
    ...@@@@.........
    ................


# 0x1c9
0x24, 0x69:
    ................
    ....@@@@........
    ........@@......
    ..@.......@.....
    ...@............
    ...@............
    ..@.............
    ..@...@@@@@.....
    ..@.@@.....@....
    ..@@........@...
    ..@.........@...
    ............@...
    ...........@....
    ........@@@.....
    .....@@@........
    ................


# 0x1ca
0x24, 0x6a:
    ................
    ...@............
    ...@....@@@.....
    ..@....@...@....
    ..@...@....@....
    ..@...@.....@...
    ..@..@......@...
    ..@.@.......@...
    ..@.@.......@...
    ..@@........@...
    ...@.......@....
    ...........@....
    .........@@.....
    .......@@.......
    ....@@@.........
    ................


# 0x1cb
0x24, 0x6b:
    ................
    .......@@@......
    ...@.@@...@.....
    ....@....@......
    ........@.......
    .......@........
    ......@.@@@.....
    .....@@....@....
    ....@.......@...
    ...@.........@..
    ..@..........@..
    .....@@@.....@..
    ....@...@@..@...
    ....@.....@@....
    .....@@@@@......
    ................


# 0x1cc
0x24, 0x6c:
    ................
    ...@............
    ....@...........
    ....@...@@@.....
    .@..@..@...@....
    ..@@@.@....@....
    ....@@.....@....
    ....@......@....
    ...@@......@....
    ..@.@.....@.....
    .@..@.....@.....
    ....@.....@...@.
    ....@.....@..@..
    ....@......@@...
    ....@...........
    ................


# 0x1cd
0x24, 0x6d:
    ................
    ........@@@.....
    ..@..@@@..@.....
    ...@@....@......
    ........@.......
    .......@........
    ......@@@@@.....
    .....@@....@....
    ....@.......@...
    ...@.........@..
    ..@..........@..
    .............@..
    ............@...
    .........@@@....
    .....@@@@.......
    ................


# 0x1ce
0x24, 0x6e:
    ................
    ................
    ................
    ................
    ...@............
    ....@...........
    ....@..@@@......
    ..@@@.@...@.....
    ....@@.....@....
    ....@......@....
    ...@@......@....
    ..@.@......@....
    ....@.....@.....
    ....@....@......
    ....@...........
    ................


# 0x1cf
0x24, 0x6f:
    ................
    ...@............
    ....@...........
    ....@...........
    @..@@...@@@@....
    .@@.@.@@....@...
    ....@@.......@..
    ....@........@..
    ...@@........@..
    @.@.@........@..
    .@..@........@..
    ....@.......@...
    ....@.....@@....
    ....@..@@@......
    ....@...........
    ................


# 0x1d0
0x24, 0x70:
    ................
    ..@...@@@.......
    ...@@@..@.......
    ........@.......
    .....@@@@@......
    ....@..@..@@....
    ...@...@....@...
    ..@....@....@...
    ..@...@......@..
    .@....@......@..
    .@...@..@@@..@..
    .@...@.@...@@...
    .@..@..@...@@...
    ..@@....@@@..@..
    ................
    ................


# 0x1d1
0x24, 0x71:
    ................
    ......@@@@......
    ..@@@@...@@.....
    ...@....@.......
    ......@@@@@.....
    ....@@.....@....
    ...@........@...
    ..@..@@@....@...
    ....@...@..@....
    .....@@@@@@.....
    .....@..........
    ....@@....@@....
    ...@..@..@..@...
    ..@...@.@...@...
    .@.....@.....@..
    .@.....@.....@..


# 0x1d2
0x24, 0x72:
    ................
    .....@..........
    ......@...@.....
    .@....@@@@......
    ..@@@@..........
    .....@..........
    ....@@@......@..
    ...@...@...@@...
    ..@.....@@@.....
    .@....@@@.......
    .....@..@.......
    ....@...@.......
    ....@...........
    .....@@.........
    .......@@@@@@...
    ................


# 0x1d3
0x24, 0x73:
    ................
    ....@...........
    .....@..........
    .....@..........
    ....@...........
    ....@...........
    ....@...........
    ...@.@@.........
    ...@@..@........
    ...@....@.....@.
    ..@.....@.....@.
    ..@.....@....@..
    ..@.....@....@..
    .@......@...@...
    .@.......@@@....
    ................


# 0x1d4
0x24, 0x74:
    .......@.......@
    ......@.......@.
    .....@.......@..
    ....@.......@...
    ...@.......@....
    ..@.......@.....
    .@.......@......
    @.......@.......
    .......@.......@
    ......@.......@.
    .....@.......@..
    ....@.......@...
    ...@.......@....
    ..@.......@.....
    .@.......@......
    @.......@.......


# 0x1d5
0x24, 0x75:
    @.......@.......
    .@.......@......
    ..@.......@.....
    ...@.......@....
    ....@.......@...
    .....@.......@..
    ......@.......@.
    .......@.......@
    @.......@.......
    .@.......@......
    ..@.......@.....
    ...@.......@....
    ....@.......@...
    .....@.......@..
    ......@.......@.
    .......@.......@


# 0x1d6
0x24, 0x76:
    ......@.......@.
    ......@.......@.
    ......@.......@.
    ..@.......@.....
    ..@.......@.....
    ..@...@...@...@.
    ......@.......@.
    ......@.......@.
    ..@.......@.....
    ..@.......@.....
    ..@.......@.....
    ......@.......@.
    ......@.......@.
    ..@...@...@...@.
    ..@.......@.....
    ..@.......@.....


# 0x1d7
0x24, 0x77:
    ................
    ..@@@...@@...@@.
    ................
    ................
    ................
    @@...@@...@@@...
    ................
    ................
    ................
    ..@@@...@@...@@.
    ................
    ................
    ................
    @@...@@...@@@...
    ................
    ................


# 0x1d8
0x24, 0x78:
    ................
    ...@....@.....@.
    ................
    ................
    @.....@....@....
    ................
    ................
    ...@....@.....@.
    ................
    ................
    ................
    @.....@....@....
    ................
    ................
    ...@....@.....@.
    ................


# 0x1d9
0x24, 0x79:
    ................
    ................
    ................
    ................
    ................
    ................
    ................
    ................
    ................
    ................
    ................
    ................
    ................
    ................
    ................
    ................


# 0x1da
0x24, 0x7a:
    ................
    ................
    ................
    ................
    ................
    ................
    ................
    ................
    ................
    ................
    ................
    ................
    ................
    ................
    ................
    ................


# 0x1db
0x24, 0x7b:
    ................
    ................
    ................
    ................
    ................
    ................
    ................
    ................
    ................
    ................
    ................
    ................
    ................
    ................
    ................
    ................


# 0x1dc
0x24, 0x7c:
    ................
    ................
    ................
    ................
    ................
    ................
    ................
    ................
    ................
    ................
    ................
    ................
    ................
    ................
    ................
    ................


# 0x1dd
0x24, 0x7d:
    ................
    ................
    ................
    ................
    ................
    ................
    ................
    ................
    ................
    ................
    ................
    ................
    ................
    ................
    ................
    ................


# 0x1de
0x24, 0x7e:
    ................
    ................
    ................
    ................
    ................
    ................
    ................
    ................
    ................
    ................
    ................
    ................
    ................
    ................
    ................
    ................


# 0x1df
0x24, 0x7f:
    ................
    ................
    ................
    ................
    ................
    .......@........
    .......@........
    .......@........
    ....@@@@@@@.....
    .......@........
    .......@........
    .......@........
    ................
    ................
    ................
    ................


# 0x1e0
0x25, 0x20:
    .....@@@@@......
    ...@@.....@@....
    ..@.........@...
    .@...........@..
    .@...........@..
    @..@....@.....@.
    @..@...@......@.
    @..@..@.......@.
    @..@.@@@@@@@@.@.
    @..@..@.......@.
    @..@...@......@.
    .@.@....@....@..
    .@...........@..
    ..@.........@...
    ...@@.....@@....
    .....@@@@@......


# 0x1e1
0x25, 0x21:
    ................
    ................
    ................
    ................
    ................
    ..@@@@@@@@@@....
    ...........@....
    ..........@.....
    ......@...@.....
    ......@..@......
    ......@.@.......
    .....@..........
    .....@..........
    ....@...........
    ....@...........
    ...@............


# 0x1e2
0x25, 0x22:
    ................
    ............@...
    .@......@@@@@@..
    ..@@@@@@....@...
    ............@...
    ......@....@....
    .......@@..@....
    .......@..@.....
    .......@.@......
    ......@.........
    ......@.........
    .....@..........
    .....@..........
    ....@...........
    ...@............
    ................


# 0x1e3
0x25, 0x23:
    ................
    ................
    ................
    ................
    ...........@....
    ..........@.....
    .........@......
    ........@.......
    .......@@.......
    .....@@.@.......
    ...@@...@.......
    ........@.......
    ........@.......
    ........@.......
    ........@.......
    ................


# 0x1e4
0x25, 0x24:
    ................
    ...........@....
    ...........@@...
    ...........@....
    ..........@.....
    .........@......
    ........@.......
    ......@@@.......
    ....@@..@.......
    .@@@....@.......
    ........@.......
    ........@.......
    ........@.......
    ........@.......
    ........@.......
    ................


# 0x1e5
0x25, 0x25:
    ................
    ................
    ................
    .......@........
    .......@........
    .......@........
    ...@@@@@@@@@....
    ...@.......@....
    ...@.......@....
    ...@.......@....
    ..........@.....
    ..........@.....
    .........@......
    ........@.......
    ......@@........
    ................


# 0x1e6
0x25, 0x26:
    ......@.........
    .......@........
    .......@....@...
    .@.....@@@@@@@..
    ..@@@@@.....@...
    ..@.........@...
    ..@.........@...
    ..@.........@...
    ...........@....
    ...........@....
    ..........@.....
    ..........@.....
    .........@......
    ........@.......
    ......@@........
    ................


# 0x1e7
0x25, 0x27:
    ................
    ................
    ................
    ................
    ................
    ................
    ....@@@@@@@@....
    .......@........
    .......@........
    .......@........
    .......@........
    .......@........
    .......@........
    ...@@@@@@@@@....
    ................
    ................


# 0x1e8
0x25, 0x28:
    ................
    ................
    ............@...
    ..@.....@@@@@...
    ...@@@@@........
    .......@@.......
    .......@........
    .......@........
    .......@........
    .......@........
    .......@....@...
    .@.....@@@@@@@..
    ..@@@@@.......@.
    ................
    ................
    ................


# 0x1e9
0x25, 0x29:
    ................
    ................
    ................
    ................
    ........@.......
    ........@.......
    ........@.......
    ..@@@@@@@@@@....
    ......@.@.......
    ......@.@.......
    .....@..@.......
    .....@..@.......
    ....@...@.......
    ...@...@@.......
    ........@.......
    ................


# 0x1ea
0x25, 0x2a:
    ................
    ........@.......
    .........@......
    .........@...@..
    .@.......@@@@@@.
    ..@@@@@@@@......
    .......@.@......
    .......@.@......
    ......@..@......
    ......@..@......
    .....@...@......
    ....@....@......
    ...@.....@......
    .@@....@.@......
    ........@@......
    ................


# 0x1eb
0x25, 0x2b:
    ................
    .....@..........
    ......@.........
    ......@....@....
    .@....@..@@@@...
    ..@@@@@@@...@@..
    ......@.....@...
    .....@......@...
    .....@......@...
    ....@.......@...
    ....@......@....
    ...@.......@....
    ..@.....@..@....
    .@.......@@.....
    ..........@.....
    ................


# 0x1ec
0x25, 0x2c:
    ...........@..@.
    .....@......@..@
    ......@.....@..@
    ......@.........
    .@....@..@@@@...
    ..@@@@@@@...@@..
    ......@.....@...
    .....@......@...
    .....@......@...
    ....@.......@...
    ....@......@....
    ...@.......@....
    ..@.....@..@....
    .@.......@@.....
    ..........@.....
    ................


# 0x1ed
0x25, 0x2d:
    ................
    .....@..........
    ......@.........
    ......@....@....
    .@....@@@@@@@...
    ..@@@@@@........
    .......@........
    .......@....@...
    .@.....@@@@@@@..
    ..@@@@@@........
    ........@.......
    ........@.......
    ........@.......
    ........@.......
    ........@.......
    ................


# 0x1ee
0x25, 0x2e:
    ...........@..@.
    .....@......@..@
    ......@.....@..@
    ......@...@.....
    .@....@@@@@@....
    ..@@@@@@........
    .......@........
    .......@....@...
    .@.....@@@@@@@..
    ..@@@@@@........
    ........@.......
    ........@.......
    ........@.......
    ........@.......
    ........@.......
    ................


# 0x1ef
0x25, 0x2f:
    ................
    .....@..........
    ......@.........
    .....@......@...
    .....@@@@@@@@@..
    ....@.......@...
    ....@.......@...
    ...@.......@....
    ..@........@....
    ..........@.....
    ..........@.....
    .........@......
    .......@@.......
    .....@@.........
    ...@@...........
    ................


# 0x1f0
0x25, 0x30:
    ...........@..@.
    .....@......@..@
    ......@.....@..@
    .....@..........
    .....@@@@@@@@@..
    ....@.......@...
    ....@.......@...
    ...@.......@....
    ..@........@....
    ..........@.....
    ..........@.....
    .........@......
    .......@@.......
    .....@@.........
    ...@@...........
    ................


# 0x1f1
0x25, 0x31:
    ................
    ....@...........
    .....@..........
    .....@.......@..
    ....@......@@@@.
    ....@@@@@@@.....
    ...@......@.....
    ...@......@.....
    ..@......@......
    .@.......@......
    ........@.......
    ........@.......
    .......@........
    ......@.........
    ....@@..........
    ................


# 0x1f2
0x25, 0x32:
    ...........@..@.
    ....@.......@..@
    .....@......@..@
    .....@..........
    ....@......@@@@.
    ....@@@@@@@.....
    ...@......@.....
    ...@......@.....
    ..@......@......
    .@.......@......
    ........@.......
    ........@.......
    .......@........
    ......@.........
    ....@@..........
    ................


# 0x1f3
0x25, 0x33:
    ................
    ................
    ................
    ............@...
    ..@.....@@@@@@..
    ...@@@@@....@...
    ............@...
    ............@...
    ............@...
    ............@...
    ............@...
    ..@....@@@@@@...
    ...@@@@.....@...
    ................
    ................
    ................


# 0x1f4
0x25, 0x34:
    ...........@..@.
    ............@..@
    ............@..@
    ................
    ..@.....@@@@@@..
    ...@@@@@....@...
    ............@...
    ............@...
    ............@...
    ............@...
    ............@...
    ..@....@@@@@@...
    ...@@@@.....@...
    ................
    ................
    ................


# 0x1f5
0x25, 0x35:
    ................
    ...@.....@......
    ....@.....@.....
    ....@.....@..@..
    ....@.....@@@@@.
    @...@@@@@@@.....
    .@@@@.....@.....
    ....@.....@.....
    ....@.....@.....
    ....@....@......
    .........@......
    ........@.......
    ........@.......
    .......@........
    .....@@.........
    ................


# 0x1f6
0x25, 0x36:
    ...........@..@.
    ...@.....@..@..@
    ....@.....@.@..@
    ....@.....@.....
    ....@.....@..@..
    @...@@@@@@@@@@@.
    .@@@@.....@.....
    ....@.....@.....
    ....@.....@.....
    ....@....@......
    .........@......
    ........@.......
    ........@.......
    .......@........
    .....@@.........
    ................


# 0x1f7
0x25, 0x37:
    ................
    ................
    ...@@...........
    .....@@.........
    .......@........
    .............@..
    .@@..........@..
    ...@@.......@...
    .....@......@...
    ...........@....
    ..........@.....
    ........@@......
    ......@@........
    ..@@@@..........
    ...@............
    ................


# 0x1f8
0x25, 0x38:
    ................
    ...........@..@.
    ...@@.......@..@
    .....@@.....@..@
    .......@........
    .............@..
    .@@..........@..
    ...@@.......@...
    .....@......@...
    ...........@....
    ..........@.....
    ........@@......
    ......@@........
    ..@@@@..........
    ...@............
    ................


# 0x1f9
0x25, 0x39:
    ................
    ................
    ...........@....
    ...@....@@@@@...
    ....@@@@...@....
    ..........@.....
    ..........@.....
    .........@......
    .........@......
    ........@.@.....
    .......@...@....
    ......@.....@...
    ....@@.......@..
    ..@@.........@..
    ................
    ................


# 0x1fa
0x25, 0x3a:
    ...........@..@.
    ............@..@
    ............@..@
    ................
    ...@...@@@@@....
    ....@@@...@.....
    ..........@.....
    .........@......
    .........@......
    ........@.@.....
    .......@...@....
    ......@.....@...
    ....@@.......@..
    ..@@.........@..
    ................
    ................


# 0x1fb
0x25, 0x3b:
    ................
    ....@...........
    .....@..........
    .....@......@...
    .....@...@@@@@..
    .@...@@@@....@..
    ..@@@@......@...
    .....@.....@....
    .....@....@.....
    .....@..........
    .....@..........
    .....@..........
    .....@.....@....
    ......@@@@@@@...
    ................
    ................


# 0x1fc
0x25, 0x3c:
    ...........@..@.
    ....@.......@..@
    .....@......@..@
    .....@..........
    .....@...@@@@@..
    .@...@@@@....@..
    ..@@@@......@...
    .....@.....@....
    .....@....@.....
    .....@..........
    .....@..........
    .....@..........
    .....@.....@....
    ......@@@@@@@...
    ................
    ................


# 0x1fd
0x25, 0x3d:
    ................
    ................
    ................
    ..@.............
    ...@........@...
    ...@........@...
    ....@.......@...
    ....@......@....
    ...........@....
    ..........@.....
    ..........@.....
    .........@......
    ........@.......
    ......@@........
    ....@@..........
    ................


# 0x1fe
0x25, 0x3e:
    ..........@..@..
    ...........@..@.
    ...........@..@.
    ..@.............
    ...@........@...
    ...@........@...
    ....@.......@...
    ....@......@....
    ...........@....
    ..........@.....
    ..........@.....
    .........@......
    ........@.......
    ......@@........
    ....@@..........
    ................


# 0x1ff
0x25, 0x3f:
    ................
    ....@...........
    .....@..........
    .....@.....@....
    .....@@@@@@@@...
    ....@......@....
    ....@......@....
    ...@.@....@.....
    ..@...@@..@.....
    ........@@......
    .........@@.....
    ........@..@....
    .......@........
    .....@@.........
    ...@@...........
    ................


# 0x200
0x25, 0x40:
    ...........@..@.
    ....@.......@..@
    .....@......@..@
    .....@....@.....
    .....@@@@@@@@...
    ....@......@....
    ....@......@....
    ...@.@....@.....
    ..@...@@..@.....
    ........@@......
    .........@@.....
    ........@..@....
    .......@........
    .....@@.........
    ...@@...........
    ................


# 0x201
0x25, 0x41:
    ................
    ................
    ..........@.....
    .........@@@....
    ......@@@.......
    ...@@@..@.......
    ........@....@..
    .@......@@@@@@@.
    ..@@@@@@@.......
    ........@.......
    .......@........
    .......@........
    ......@.........
    .....@..........
    ...@@...........
    ................


# 0x202
0x25, 0x42:
    ...........@..@.
    ............@..@
    ............@..@
    .........@@.....
    ......@@@.......
    ...@@@..@.......
    ........@....@..
    .@......@@@@@@@.
    ..@@@@@@@.......
    ........@.......
    .......@........
    .......@........
    ......@.........
    .....@..........
    ...@@...........
    ................


# 0x203
0x25, 0x43:
    ................
    ................
    ................
    ................
    .....@..........
    ..@...@....@....
    ...@...@...@....
    ....@..@...@....
    ....@......@....
    ..........@.....
    ..........@.....
    .........@......
    .......@@.......
    .....@@.........
    ................
    ................


# 0x204
0x25, 0x44:
    ................
    .....@..........
    ......@.....@...
    .@....@......@..
    ..@....@.....@@.
    ..@....@.....@..
    ...@...@....@...
    ...@........@...
    ...@.......@....
    ...........@....
    ..........@.....
    .........@......
    ........@.......
    ......@@........
    ....@@..........
    ................


# 0x205
0x25, 0x45:
    ................
    .....@....@..@..
    ......@....@..@.
    .@....@....@..@.
    ..@....@........
    ..@....@........
    ...@...@....@...
    ...@........@...
    ...@.......@....
    ...........@....
    ..........@.....
    .........@......
    ........@.......
    ......@@........
    ....@@..........
    ................


# 0x206
0x25, 0x46:
    ................
    ..........@.....
    ...@....@@@@....
    ....@@@@........
    ................
    ............@...
    .@.......@@@@@..
    ..@@@@@@@.......
    ........@.......
    ........@.......
    .......@........
    .......@........
    ......@.........
    .....@..........
    ....@...........
    ................


# 0x207
0x25, 0x47:
    ...........@..@.
    ............@..@
    ...@....@@@.@..@
    ....@@@@........
    ................
    ............@...
    .@.......@@@@@..
    ..@@@@@@@.......
    ........@.......
    ........@.......
    .......@........
    .......@........
    ......@.........
    .....@..........
    ...@@...........
    ................


# 0x208
0x25, 0x48:
    ................
    ...@............
    ....@...........
    ....@...........
    ....@...........
    ....@...........
    ....@@@.........
    ....@..@@@......
    ....@.....@@....
    ....@.......@...
    ....@...........
    ....@...........
    ....@...........
    ....@...........
    ....@...........
    ................


# 0x209
0x25, 0x49:
    ................
    ...@.....@..@...
    ....@.....@..@..
    ....@.....@..@..
    ....@...........
    ....@...........
    ....@@@.........
    ....@..@@@......
    ....@.....@@....
    ....@.......@...
    ....@...........
    ....@...........
    ....@...........
    ....@...........
    ....@...........
    ................


# 0x20a
0x25, 0x4a:
    ................
    .......@........
    ........@.......
    ........@.......
    ........@...@...
    .@......@@@@@@..
    ..@@@@@@@.......
    ........@.......
    ........@.......
    .......@........
    .......@........
    ......@.........
    ......@.........
    .....@..........
    ....@...........
    ................


# 0x20b
0x25, 0x4b:
    ................
    ................
    ..........@.....
    ...@....@@@@....
    ....@@@@........
    ................
    ................
    ................
    ................
    ................
    ............@...
    .@......@@@@@@..
    ..@@@@@@........
    ................
    ................
    ................


# 0x20c
0x25, 0x4c:
    ................
    ...........@....
    ..@.....@@@@@...
    ...@@@@@...@....
    ...........@....
    ...........@....
    ....@@....@.....
    ......@@..@.....
    ........@@......
    .........@@.....
    ........@..@....
    .......@....@...
    ......@.........
    ....@@..........
    ..@@............
    ................


# 0x20d
0x25, 0x4d:
    ................
    ....@@@.........
    .......@@.......
    ...........@....
    ..@.....@@@@@...
    ...@@@@@...@....
    ..........@.....
    .........@......
    ........@.......
    ......@@@.......
    ....@@.@.@@.....
    ..@@...@...@@...
    @@.....@.....@..
    .......@........
    .......@........
    .......@........


# 0x20e
0x25, 0x4e:
    ................
    ..........@.....
    ...........@....
    ...........@@...
    ...........@....
    ...........@....
    ..........@.....
    ..........@.....
    .........@......
    .........@......
    ........@.......
    .......@........
    ......@.........
    ....@@..........
    ..@@............
    ................


# 0x20f
0x25, 0x4f:
    ................
    ................
    ................
    .....@...@......
    .....@....@.....
    .....@....@.....
    ....@......@....
    ....@......@....
    ....@.......@...
    ...@........@...
    ...@........@...
    ..@..........@..
    ..@..........@..
    .@...........@..
    ................
    ................


# 0x210
0x25, 0x50:
    ................
    ..........@..@..
    ...........@..@.
    .....@...@.@..@.
    .....@....@.....
    .....@....@.....
    ....@......@....
    ....@......@....
    ....@.......@...
    ...@........@...
    ...@........@...
    ..@..........@..
    ..@..........@..
    .@...........@..
    ................
    ................


# 0x211
0x25, 0x51:
    ................
    ............@@..
    ...........@..@.
    .....@...@.@..@.
    .....@....@.@@..
    .....@....@.....
    ....@......@....
    ....@......@....
    ....@.......@...
    ...@........@...
    ...@........@...
    ..@..........@..
    ..@..........@..
    .@...........@..
    ................
    ................


# 0x212
0x25, 0x52:
    ................
    ................
    ..@.............
    ...@............
    ...@.......@....
    ...@......@@@...
    ...@...@@@......
    ...@@@@.........
    ...@............
    ...@............
    ...@............
    ...@............
    ....@......@....
    .....@@@@@@@@...
    ................
    ................


# 0x213
0x25, 0x53:
    ................
    .........@..@...
    ..@.......@..@..
    ...@......@..@..
    ...@.......@....
    ...@......@@@...
    ...@...@@@......
    ...@@@@.........
    ...@............
    ...@............
    ...@............
    ...@............
    ....@......@....
    .....@@@@@@@@...
    ................
    ................


# 0x214
0x25, 0x54:
    ................
    ............@@..
    ..@........@..@.
    ...@.......@..@.
    ...@........@@..
    ...@............
    ...@...@@@@.....
    ...@@@@.........
    ...@............
    ...@............
    ...@............
    ...@............
    ....@......@....
    .....@@@@@@@@...
    ................
    ................


# 0x215
0x25, 0x55:
    ................
    ................
    ............@...
    ..@.....@@@@@@..
    ...@@@@@....@...
    ............@...
    ...........@....
    ...........@....
    ..........@.....
    ..........@.....
    .........@......
    ........@.......
    ......@@........
    ....@@..........
    ................
    ................


# 0x216
0x25, 0x56:
    ................
    ..........@..@..
    ...........@..@.
    ...........@..@.
    .@.....@@@@@@...
    ..@@@@@....@....
    ...........@....
    ..........@.....
    ..........@.....
    .........@......
    .........@......
    ........@.......
    .......@........
    .....@@.........
    ...@@...........
    ................


# 0x217
0x25, 0x57:
    ................
    ............@@..
    ...........@..@.
    ...........@..@.
    ............@@..
    .@.....@@@@@....
    ..@@@@@....@....
    ..........@.....
    ..........@.....
    .........@......
    .........@......
    ........@.......
    .......@........
    .....@@.........
    ...@@...........
    ................


# 0x218
0x25, 0x58:
    ................
    ................
    ................
    ......@@........
    .....@..@.......
    ....@....@......
    .@.@......@.....
    ..@.......@.....
    ...........@....
    ............@...
    .............@..
    ..............@.
    ..............@.
    ................
    ................
    ................


# 0x219
0x25, 0x59:
    ................
    ................
    ..........@..@..
    ......@@...@..@.
    .....@..@..@..@.
    ....@....@......
    .@.@......@.....
    ..@.......@.....
    ...........@....
    ............@...
    .............@..
    ..............@.
    ..............@.
    ................
    ................
    ................


# 0x21a
0x25, 0x5a:
    ................
    ................
    ............@@..
    ......@@...@..@.
    .....@..@..@..@.
    ....@....@..@@..
    .@.@......@.....
    ..@.......@.....
    ...........@....
    ............@...
    .............@..
    ..............@.
    ..............@.
    ................
    ................
    ................


# 0x21b
0x25, 0x5b:
    ................
    ......@.........
    .......@........
    .......@...@....
    ..@....@@@@@@...
    ...@@@@@........
    .......@........
    ....@..@..@.....
    ....@..@...@....
    ...@...@....@...
    ...@...@....@...
    ..@....@.....@..
    .@...@.@.....@..
    ......@@........
    .......@........
    ................


# 0x21c
0x25, 0x5c:
    ................
    ......@...@..@..
    .......@...@..@.
    .......@...@..@.
    ..@....@@@@@@...
    ...@@@@@........
    .......@........
    ....@..@..@.....
    ....@..@...@....
    ...@...@....@...
    ...@...@....@...
    ..@....@.....@..
    .@...@.@.....@..
    ......@@........
    .......@........
    ................


# 0x21d
0x25, 0x5d:
    ............@@..
    ......@....@..@.
    .......@...@..@.
    .......@....@@..
    ..@....@........
    ...@@@@@@@@@@...
    .......@........
    ....@..@..@.....
    ....@..@...@....
    ...@...@....@...
    ...@...@....@...
    ..@....@.....@..
    .@...@.@.....@..
    ......@@........
    .......@........
    ................


# 0x21e
0x25, 0x5e:
    ................
    ................
    ............@...
    .@......@@@@@@..
    ..@@@@@@....@...
    ............@...
    ...........@....
    ...@.......@....
    ....@.....@.....
    .....@...@......
    ......@.@.......
    .......@........
    ........@.......
    ........@.......
    ................
    ................


# 0x21f
0x25, 0x5f:
    ................
    ...@@@..........
    ......@@@.......
    .........@@.....
    ................
    ....@@..........
    ......@@@.......
    .........@......
    ................
    ................
    ..@@@@..........
    ......@@........
    ........@@......
    ..........@@....
    ................
    ................


# 0x220
0x25, 0x60:
    ................
    ......@.........
    ......@@........
    ......@.........
    ......@.........
    ......@.........
    .....@..........
    .....@....@.....
    .....@.....@....
    ....@......@....
    ....@.......@...
    ....@.......@...
    ...@.....@@@@@..
    .@@@@@@@@....@..
    ..@..........@..
    ................


# 0x221
0x25, 0x61:
    ................
    ..........@.....
    ...........@....
    ...........@@...
    ...........@....
    ....@@@....@....
    .......@@.@.....
    .........@@.....
    ..........@.....
    .........@.@....
    ........@...@...
    .......@........
    ......@.........
    ....@@..........
    ..@@............
    ................


# 0x222
0x25, 0x62:
    ................
    ..........@.....
    ..@....@@@@@....
    ...@@@@.........
    ......@.........
    ......@.........
    ......@.....@...
    .@....@@@@@@@@..
    ..@@@@@.........
    ......@.........
    ......@.........
    ......@.........
    ......@....@....
    .......@@@@@@...
    ................
    ................


# 0x223
0x25, 0x63:
    ................
    ................
    ................
    ................
    ....@...........
    ....@...........
    .....@@@@@@@....
    .@@@@@.....@....
    .....@....@.....
    .....@...@......
    .....@..@.......
    ......@.........
    ......@.........
    ......@.........
    ......@.........
    ................


# 0x224
0x25, 0x64:
    ................
    ....@...........
    .....@..........
    .....@..........
    .....@......@...
    .@...@@@@@@@@@..
    ..@@@@......@...
    ......@.....@...
    ......@....@....
    ......@....@....
    ......@...@.....
    .......@........
    .......@........
    .......@........
    .......@........
    ................


# 0x225
0x25, 0x65:
    ................
    ................
    ................
    ................
    ................
    ....@@@@@@......
    .........@......
    .........@......
    .........@......
    .........@......
    .........@......
    .........@......
    ...@@@@@@@@@@...
    ................
    ................
    ................


# 0x226
0x25, 0x66:
    ................
    ................
    ..........@.....
    ...@....@@@@....
    ....@@@@..@.....
    ..........@.....
    ..........@.....
    ..........@.....
    .........@......
    .........@......
    .........@......
    .........@...@..
    .@.....@@@@@@@@.
    ..@@@@@.........
    ................
    ................


# 0x227
0x25, 0x67:
    ................
    ................
    ................
    ................
    ................
    ................
    ..@@@@@@@@@.....
    ..........@.....
    ..........@.....
    ...@@@@@@@@.....
    ..........@.....
    ..........@.....
    ..........@.....
    ..@@@@@@@@@.....
    ..........@.....
    ................


# 0x228
0x25, 0x68:
    ................
    ................
    ............@...
    ..@....@@@@@@@..
    ...@@@@.....@...
    ............@...
    ............@...
    ...@...@@@@@@...
    ....@@@....@....
    ...........@....
    ...........@....
    ...........@....
    ..@....@@@@@....
    ...@@@@....@....
    ................
    ................


# 0x229
0x25, 0x69:
    ................
    ..........@.....
    ...@...@@@@@....
    ....@@@.........
    ............@...
    .@.....@@@@@@@..
    ..@@@@@......@..
    ............@...
    ............@...
    ...........@....
    ...........@....
    ..........@.....
    ........@@......
    .......@........
    .....@@.........
    ................


# 0x22a
0x25, 0x6a:
    ................
    ..........@.....
    ...@.......@....
    ....@......@....
    ....@......@....
    ....@......@....
    ....@......@....
    ....@......@....
    ....@......@....
    ....@......@....
    ..........@.....
    ..........@.....
    .........@......
    ........@.......
    ......@@........
    ................


# 0x22b
0x25, 0x6b:
    ................
    ......@.........
    ...@...@........
    ....@..@........
    ....@..@........
    ....@..@........
    ....@..@........
    ...@...@......@.
    ...@...@......@.
    ...@...@.....@..
    ...@...@.....@..
    ..@....@....@...
    ..@....@..@@....
    .@.....@@@......
    @...............
    ................


# 0x22c
0x25, 0x6c:
    ................
    ..@.............
    ...@............
    ...@............
    ...@............
    ...@.........@..
    ...@.........@..
    ...@........@...
    ...@........@...
    ...@.......@....
    ...@......@.....
    ...@....@@......
    ...@..@@........
    ...@@@..........
    ...@............
    ................


# 0x22d
0x25, 0x6d:
    ................
    ................
    ............@...
    ..@.....@@@@@@..
    ...@@@@@....@...
    ...@........@...
    ...@........@...
    ...@........@...
    ....@.......@...
    ....@......@....
    ....@......@....
    ....@......@....
    ....@@@@@@@@@...
    ....@...........
    ................
    ................


# 0x22e
0x25, 0x6e:
    ................
    ................
    ................
    ................
    ................
    ...@@@@@@@@@....
    ...@.......@....
    ...@.......@....
    ...........@....
    ...........@....
    ..........@.....
    ..........@.....
    .........@......
    ........@.......
    ......@@........
    ................


# 0x22f
0x25, 0x6f:
    ................
    ................
    ............@...
    ..@.....@@@@@@..
    ...@@@@@....@...
    ...@........@...
    ...@........@...
    ...@.......@....
    ...........@....
    ..........@.....
    ..........@.....
    .........@......
    ........@.......
    ......@@........
    ....@@..........
    ................


# 0x230
0x25, 0x70:
    ................
    .......@........
    ........@.......
    ........@..@....
    ..@.....@@@@@...
    ...@@@@@@.......
    ....@...@.......
    ....@...@.......
    ....@...@...@...
    .@..@...@@@@@@..
    ..@@@@@@@.......
    ........@.......
    ........@.......
    ........@.......
    ........@.......
    ................


# 0x231
0x25, 0x71:
    ................
    ................
    ...........@....
    ..@....@@@@@@...
    ...@@@@....@....
    ..........@.....
    ......@..@......
    .......@@.......
    .......@........
    .......@........
    .......@........
    .......@....@...
    .@.....@@@@@@@..
    ..@@@@@.........
    ................
    ................


# 0x232
0x25, 0x72:
    ................
    ................
    ............@...
    ..@.....@@@@@@..
    ...@@@@@....@...
    ............@...
    ...........@....
    ....@...@@@@....
    .....@@@..@.....
    ..........@.....
    .........@......
    ........@.......
    ......@@........
    ....@@..........
    ................
    ................


# 0x233
0x25, 0x73:
    ................
    ................
    ..@.............
    ...@@...........
    .....@..........
    .....@@.........
    ......@......@..
    .............@..
    ............@...
    ...........@....
    ..........@.....
    ........@@......
    ......@@........
    ..@@@@..........
    ...@............
    ................


# 0x234
0x25, 0x74:
    ..........@..@..
    ......@....@..@.
    .......@...@..@.
    .......@....@...
    .@.....@@@@@@@..
    ..@@@@@.....@...
    ..@.........@...
    ..@.........@...
    ..@........@....
    ...........@....
    ..........@.....
    ..........@.....
    .........@......
    ........@.......
    ......@@........
    ................


# 0x235
0x25, 0x75:
    ................
    ................
    ................
    ................
    ......@.........
    ......@.........
    ......@.........
    ...@@@@@@@@.....
    ......@...@.....
    ......@...@.....
    ......@...@.....
    .....@....@.....
    .....@....@.....
    ....@...@.@.....
    ...@.....@......
    ................


# 0x236
0x25, 0x76:
    ................
    ................
    ................
    ................
    .....@..........
    .....@..........
    .....@..........
    ....@@@@@@@@@...
    ....@....@......
    ...@.....@......
    ..@......@......
    ........@.......
    ........@.......
    .......@........
    .....@@.........
    ................


# 0x237
0x25, 0x77:
    ................
    ................
    ................
    ................
    ................
    ................
    ................
    ................
    ................
    ................
    ................
    ................
    ................
    ................
    ................
    ................


# 0x238
0x25, 0x78:
    ................
    ................
    ................
    ................
    ................
    ................
    ................
    ................
    ................
    ................
    ................
    ................
    ................
    ................
    ................
    ................


# 0x239
0x25, 0x79:
    ................
    ................
    ................
    ................
    ................
    ................
    ................
    ................
    ................
    ................
    ................
    ................
    ................
    ................
    ................
    ................


# 0x23a
0x25, 0x7a:
    ................
    ................
    ................
    ................
    ................
    ................
    ................
    ................
    ................
    ................
    ................
    ................
    ................
    ................
    ................
    ................


# 0x23b
0x25, 0x7b:
    ................
    ................
    ................
    ................
    ................
    ................
    ................
    ................
    ................
    ................
    ................
    ................
    ................
    ................
    ................
    ................


# 0x23c
0x25, 0x7c:
    ................
    ................
    ................
    ................
    ................
    ................
    ................
    ................
    ................
    ................
    ................
    ................
    ................
    ................
    ................
    ................


# 0x23d
0x25, 0x7d:
    ................
    ................
    ................
    ................
    ................
    ................
    ................
    ................
    ................
    ................
    ................
    ................
    ................
    ................
    ................
    ................


# 0x23e
0x25, 0x7e:
    ................
    ................
    ................
    ................
    ................
    ................
    ................
    ................
    ................
    ................
    ................
    ................
    ................
    ................
    ................
    ................


# 0x23f
0x25, 0x7f:
    ................
    ................
    ................
    ................
    ......@.........
    ......@@........
    ......@@@.......
    ......@@@@......
    ......@@@.......
    ......@@........
    ......@.........
    ................
    ................
    ................
    ................
    ................


# 0x240
0x26, 0x20:
    ................
    @@.@.@.@.@.@.@@.
    @.............@.
    ................
    @.............@.
    ................
    @.............@.
    ................
    @.............@.
    ................
    @.............@.
    ................
    @.............@.
    ................
    @.............@.
    @@.@.@.@.@.@.@@.


# 0x241
0x26, 0x21:
    ................
    .......@@.......
    .......@@.......
    ......@..@......
    ......@..@......
    .....@....@.....
    .....@....@.....
    ....@......@....
    ....@......@....
    ...@@@@@@@@@@...
    ...@........@...
    ..@..........@..
    ..@..........@..
    ..@..........@..
    ................
    ................


# 0x242
0x26, 0x22:
    ................
    ..@@@@@@@@......
    ..@.......@.....
    ..@........@....
    ..@........@....
    ..@........@....
    ..@.......@.....
    ..@@@@@@@@@.....
    ..@........@....
    ..@.........@...
    ..@.........@...
    ..@.........@...
    ..@........@....
    ..@@@@@@@@@.....
    ................
    ................


# 0x243
0x26, 0x23:
    ................
    ....@@@@@@@@@...
    ....@...........
    ....@...........
    ....@...........
    ....@...........
    ....@...........
    ....@...........
    ....@...........
    ....@...........
    ....@...........
    ....@...........
    ....@...........
    ....@...........
    ................
    ................


# 0x244
0x26, 0x24:
    ................
    ......@@........
    ......@@........
    .....@..@.......
    .....@..@.......
    ....@....@......
    ....@....@......
    ...@......@.....
    ...@......@.....
    ..@........@....
    ..@........@....
    .@..........@...
    .@..........@...
    .@@@@@@@@@@@@...
    ................
    ................


# 0x245
0x26, 0x25:
    ................
    ...@@@@@@@@@....
    ...@............
    ...@............
    ...@............
    ...@............
    ...@............
    ...@@@@@@@@.....
    ...@............
    ...@............
    ...@............
    ...@............
    ...@............
    ...@@@@@@@@@....
    ................
    ................


# 0x246
0x26, 0x26:
    ................
    ...@@@@@@@@@@...
    ............@...
    ...........@....
    ..........@.....
    .........@......
    ........@.......
    .......@........
    ......@.........
    .....@..........
    ....@...........
    ...@............
    ..@.............
    ..@@@@@@@@@@@@..
    ................
    ................


# 0x247
0x26, 0x27:
    ................
    ..@.........@...
    ..@.........@...
    ..@.........@...
    ..@.........@...
    ..@.........@...
    ..@.........@...
    ..@@@@@@@@@@@...
    ..@.........@...
    ..@.........@...
    ..@.........@...
    ..@.........@...
    ..@.........@...
    ..@.........@...
    ................
    ................


# 0x248
0x26, 0x28:
    ................
    .....@@@@@......
    ....@.....@.....
    ...@.......@....
    ...@.......@....
    ..@.........@...
    ..@.........@...
    ..@.@@@@@@@.@...
    ..@.........@...
    ..@.........@...
    ...@.......@....
    ...@.......@....
    ....@.....@.....
    .....@@@@@......
    ................
    ................


# 0x249
0x26, 0x29:
    ................
    .......@........
    .......@........
    .......@........
    .......@........
    .......@........
    .......@........
    .......@........
    .......@........
    .......@........
    .......@........
    .......@........
    .......@........
    .......@........
    ................
    ................


# 0x24a
0x26, 0x2a:
    ................
    ..@........@....
    ..@.......@.....
    ..@......@......
    ..@.....@.......
    ..@....@........
    ..@...@.........
    ..@..@@.........
    ..@.@..@........
    ..@@....@.......
    ..@......@......
    ..@.......@.....
    ..@........@....
    ..@.........@...
    ................
    ................


# 0x24b
0x26, 0x2b:
    ................
    .......@........
    ......@.@.......
    ......@.@.......
    ......@.@.......
    .....@...@......
    .....@...@......
    ....@.....@.....
    ....@.....@.....
    ....@.....@.....
    ...@.......@....
    ...@.......@....
    ..@.........@...
    ..@.........@...
    ................
    ................


# 0x24c
0x26, 0x2c:
    ................
    .@@.........@@..
    .@.@.......@.@..
    .@.@.......@.@..
    .@..@.....@..@..
    .@..@.....@..@..
    .@...@...@...@..
    .@...@...@...@..
    .@...@...@...@..
    .@....@.@....@..
    .@....@.@....@..
    .@.....@.....@..
    .@...........@..
    .@...........@..
    ................
    ................


# 0x24d
0x26, 0x2d:
    ................
    .@@.........@...
    .@.@........@...
    .@..@.......@...
    .@...@......@...
    .@...@......@...
    .@....@.....@...
    .@.....@....@...
    .@......@...@...
    .@.......@..@...
    .@.......@..@...
    .@........@.@...
    .@.........@@...
    .@..........@...
    ................
    ................


# 0x24e
0x26, 0x2e:
    ................
    ..@@@@@@@@@@....
    ................
    ................
    ................
    ................
    ................
    ...@@@@@@@@.....
    ................
    ................
    ................
    ................
    ................
    ..@@@@@@@@@@....
    ................
    ................


# 0x24f
0x26, 0x2f:
    ................
    .....@@@@@......
    ....@.....@.....
    ...@.......@....
    ...@.......@....
    ..@.........@...
    ..@.........@...
    ..@.........@...
    ..@.........@...
    ..@.........@...
    ...@.......@....
    ...@.......@....
    ....@.....@.....
    .....@@@@@......
    ................
    ................


# 0x250
0x26, 0x30:
    ................
    ..@@@@@@@@@@....
    ..@........@....
    ..@........@....
    ..@........@....
    ..@........@....
    ..@........@....
    ..@........@....
    ..@........@....
    ..@........@....
    ..@........@....
    ..@........@....
    ..@........@....
    ..@........@....
    ................
    ................


# 0x251
0x26, 0x31:
    ................
    ...@@@@@@@@.....
    ...@.......@....
    ...@........@...
    ...@........@...
    ...@........@...
    ...@.......@....
    ...@@@@@@@@.....
    ...@............
    ...@............
    ...@............
    ...@............
    ...@............
    ...@............
    ................
    ................


# 0x252
0x26, 0x32:
    ................
    ...@@@@@@@@@....
    ....@...........
    .....@..........
    ......@.........
    .......@........
    ........@.......
    ........@.......
    .......@........
    ......@.........
    .....@..........
    ....@...........
    ...@............
    ..@@@@@@@@@@@...
    ................
    ................


# 0x253
0x26, 0x33:
    ................
    ..@@@@@@@@@@@...
    .......@........
    .......@........
    .......@........
    .......@........
    .......@........
    .......@........
    .......@........
    .......@........
    .......@........
    .......@........
    .......@........
    .......@........
    ................
    ................


# 0x254
0x26, 0x34:
    ................
    ...@@.....@@....
    ..@..@...@..@...
    ......@.@.......
    .......@........
    .......@........
    .......@........
    .......@........
    .......@........
    .......@........
    .......@........
    .......@........
    .......@........
    .......@........
    ................
    ................


# 0x255
0x26, 0x35:
    ................
    .......@........
    .....@@@@@......
    ...@@..@..@@....
    ..@....@....@...
    .@.....@.....@..
    .@.....@.....@..
    .@.....@.....@..
    .@.....@.....@..
    .@.....@.....@..
    ..@....@....@...
    ...@@..@..@@....
    .....@@@@@......
    .......@........
    ................
    ................


# 0x256
0x26, 0x36:
    ................
    ..@..........@..
    ...@........@...
    ....@......@....
    .....@....@.....
    ......@..@......
    .......@@.......
    ........@.......
    .......@@.......
    ......@..@......
    .....@....@.....
    ....@......@....
    ...@........@...
    ..@..........@..
    ................
    ................


# 0x257
0x26, 0x37:
    ................
    .@@....@....@@..
    ..@....@....@...
    ..@....@....@...
    ..@....@....@...
    ..@....@....@...
    ..@....@....@...
    ..@....@....@...
    ..@....@....@...
    ...@...@...@....
    ....@@@@@@@.....
    .......@........
    .......@........
    .......@........
    ................
    ................


# 0x258
0x26, 0x38:
    ................
    ......@@@.......
    ....@@...@@.....
    ...@.......@....
    ..@.........@...
    ..@.........@...
    ..@.........@...
    ..@.........@...
    ..@.........@...
    ..@.........@...
    ...@.......@....
    ....@.....@.....
    .....@...@......
    ..@@@@...@@@@...
    ................
    ................


# 0x259
0x26, 0x39:
    ................
    ................
    ................
    ................
    ................
    ................
    ................
    ................
    ................
    ................
    ................
    ................
    ................
    ................
    ................
    ................


# 0x25a
0x26, 0x3a:
    ................
    ................
    ................
    ................
    ................
    ................
    ................
    ................
    ................
    ................
    ................
    ................
    ................
    ................
    ................
    ................


# 0x25b
0x26, 0x3b:
    ................
    ................
    ................
    ................
    ................
    ................
    ................
    ................
    ................
    ................
    ................
    ................
    ................
    ................
    ................
    ................


# 0x25c
0x26, 0x3c:
    ................
    ................
    ................
    ................
    ................
    ................
    ................
    ................
    ................
    ................
    ................
    ................
    ................
    ................
    ................
    ................


# 0x25d
0x26, 0x3d:
    ................
    ................
    ................
    ................
    ................
    ................
    ................
    ................
    ................
    ................
    ................
    ................
    ................
    ................
    ................
    ................


# 0x25e
0x26, 0x3e:
    ................
    ................
    ................
    ................
    ................
    ................
    ................
    ................
    ................
    ................
    ................
    ................
    ................
    ................
    ................
    ................


# 0x25f
0x26, 0x3f:
    ................
    ................
    ................
    ................
    ................
    ................
    ................
    ................
    ................
    ................
    ................
    ................
    ................
    ................
    ................
    ................


# 0x260
0x26, 0x40:
    ................
    @.@.@.@.@.@.@.@.
    ................
    @.....@.@.....@.
    ................
    @.....@.@.....@.
    ................
    @.....@.@.....@.
    ................
    @.....@.@.....@.
    ................
    @.....@.@.....@.
    ................
    @.....@.@.....@.
    ................
    @.@.@.@.@.@.@.@.


# 0x261
0x26, 0x41:
    ................
    ................
    ................
    ......@@@...@...
    .....@...@..@...
    ....@....@..@...
    ...@.....@.@....
    ...@.....@.@....
    ..@......@@.....
    ..@......@......
    ..@......@......
    ..@.....@.@.....
    ...@...@..@.....
    ....@@@....@@...
    ................
    ................


# 0x262
0x26, 0x42:
    ................
    ......@@@.......
    .....@...@......
    .....@....@.....
    ....@.....@.....
    ....@.....@.....
    ....@....@......
    ....@..@@.......
    ....@....@......
    ...@......@.....
    ...@......@.....
    ...@......@.....
    ...@@....@......
    ..@..@@@@.......
    ..@.............
    ..@.............


# 0x263
0x26, 0x43:
    ................
    ................
    ................
    ................
    ....@@@....@@...
    ...@...@..@.....
    ........@@......
    ........@.......
    .......@........
    .......@........
    .......@........
    ......@.........
    ......@.........
    ......@.........
    ......@.........
    ......@.........


# 0x264
0x26, 0x44:
    .......@@.......
    ......@..@......
    ......@...@.....
    .......@...@....
    ........@.......
    ......@@@@......
    .....@....@.....
    ....@......@....
    ....@......@....
    ...@.......@....
    ...@......@.....
    ...@......@.....
    ....@....@......
    .....@@@@.......
    ................
    ................


# 0x265
0x26, 0x45:
    ................
    ................
    ................
    ......@@@@@.....
    .....@.....@....
    ....@.......@...
    ....@...........
    .....@@@@.......
    ....@...........
    ...@............
    ...@............
    ...@........@...
    ....@.....@@....
    .....@@@@@......
    ................
    ................


# 0x266
0x26, 0x46:
    .....@..........
    ....@....@@.....
    ....@..@@.......
    .....@@.........
    .....@..........
    ....@...........
    ....@...........
    ...@............
    ...@............
    ...@............
    ...@............
    ....@@..........
    ......@@@@......
    ..........@.....
    ........@@......
    ......@@........


# 0x267
0x26, 0x47:
    ................
    ................
    ................
    ................
    ...@@...@@@.....
    ..@..@.@...@....
    ......@.....@...
    ......@.....@...
    .....@......@...
    .....@.....@....
    .....@.....@....
    ....@.....@.....
    ....@.....@.....
    ...@.....@......
    .........@......
    ........@.......


# 0x268
0x26, 0x48:
    .......@@@......
    ......@...@.....
    .....@.....@....
    .....@.....@....
    ....@......@....
    ....@......@....
    ....@@@@@@@.....
    ...@......@.....
    ...@......@.....
    ...@......@.....
    ...@.....@......
    ...@.....@......
    ....@...@.......
    .....@@@........
    ................
    ................


# 0x269
0x26, 0x49:
    ................
    ................
    ................
    ........@.......
    .......@........
    .......@........
    ......@.........
    ......@.........
    .....@..........
    .....@..........
    ....@...........
    ....@.....@.....
    ....@...@@......
    .....@@@........
    ................
    ................


# 0x26a
0x26, 0x4a:
    ................
    ................
    ................
    ......@.........
    ......@...@@....
    .....@..@@..@...
    .....@.@........
    .....@@.........
    ....@..@........
    ....@...@.......
    ....@...@.......
    ...@...@....@...
    ...@...@...@....
    ..@.....@@@.....
    ................
    ................


# 0x26b
0x26, 0x4b:
    ........@@......
    ..........@.....
    ..........@.....
    ..........@.....
    .........@......
    .........@......
    ........@.@.....
    ........@.@.....
    .......@..@.....
    .......@..@.....
    ......@...@.....
    .....@....@.....
    ....@.....@.....
    ...@.......@....
    ................
    ................


# 0x26c
0x26, 0x4c:
    ................
    ................
    ................
    ......@.....@...
    .....@......@...
    .....@......@...
    .....@......@...
    ....@......@....
    ....@......@....
    ....@......@....
    ....@.....@.....
    ....@....@@.....
    ...@.@..@.@..@..
    ...@..@@...@@...
    ..@.............
    ..@.............


# 0x26d
0x26, 0x4d:
    ................
    ................
    ................
    ...@........@...
    ....@.......@...
    ....@.......@...
    .....@......@...
    .....@.....@....
    .....@.....@....
    .....@....@.....
    ....@....@......
    ....@..@@.......
    ....@@@.........
    ...@............
    ................
    ................


# 0x26e
0x26, 0x4e:
    .......@@@......
    ......@.........
    .......@@@@@....
    ......@.........
    .....@..........
    .....@..........
    .....@..........
    ......@@@@@.....
    .....@..........
    ....@...........
    ....@...........
    ....@...........
    .....@@@........
    ........@@......
    ..........@.....
    ......@@@@......


# 0x26f
0x26, 0x4f:
    ................
    ................
    ................
    .......@@@......
    ......@...@.....
    .....@.....@....
    .....@.....@....
    ....@......@....
    ....@......@....
    ....@......@....
    ....@.....@.....
    ....@.....@.....
    .....@...@......
    ......@@@.......
    ................
    ................


# 0x270
0x26, 0x50:
    ................
    ................
    ................
    .....@@@@@@@@...
    ...@@.@...@.....
    ..@...@...@.....
    ......@..@......
    .....@...@......
    .....@...@......
    .....@..@.......
    ....@...@.......
    ....@...@.......
    ...@....@..@....
    ..@......@@.....
    ................
    ................


# 0x271
0x26, 0x51:
    ................
    ................
    ................
    .......@@@......
    ......@...@.....
    .....@.....@....
    .....@......@...
    .....@......@...
    ....@.......@...
    ....@.......@...
    ....@.......@...
    ....@......@....
    ...@.@...@@.....
    ...@..@@@.......
    ...@............
    ...@............


# 0x272
0x26, 0x52:
    ................
    ................
    ................
    .......@@@@@@...
    .....@@..@......
    ....@.....@.....
    ...@......@.....
    ...@......@.....
    ..@.......@.....
    ..@.......@.....
    ..@......@......
    ..@......@......
    ...@....@.......
    ....@@@@........
    ................
    ................


# 0x273
0x26, 0x53:
    ................
    ................
    ................
    .....@@@@@@@....
    ....@...@.......
    .......@........
    ......@.........
    ......@.........
    .....@..........
    .....@..........
    ....@...........
    ....@....@......
    ....@...@.......
    .....@@@........
    ................
    ................


# 0x274
0x26, 0x54:
    ................
    ................
    ................
    ....@.....@.....
    ....@......@....
    ....@......@....
    ....@......@....
    ....@......@....
    ....@......@....
    ...@......@.....
    ...@......@.....
    ...@.....@......
    ....@...@.......
    .....@@@........
    ................
    ................


# 0x275
0x26, 0x55:
    ........@.......
    ........@.......
    ........@.......
    .....@@@@@@.....
    ....@...@..@....
    ...@....@...@...
    ...@....@...@...
    ..@....@....@...
    ..@....@....@...
    ..@....@....@...
    ..@...@....@....
    ...@..@..@@.....
    ....@@@@@.......
    ......@.........
    ......@.........
    ......@.........


# 0x276
0x26, 0x56:
    ................
    ................
    ................
    ....@@....@.....
    ...@..@...@.....
    ..@...@..@......
    ......@.@.......
    ......@.@.......
    ......@@........
    ......@.........
    ......@.........
    .....@.@........
    ....@..@........
    ....@..@........
    ...@....@..@....
    ..@......@@.....


# 0x277
0x26, 0x57:
    ........@.......
    ........@.......
    ........@.......
    .....@..@..@....
    ....@...@..@....
    ...@....@...@...
    ..@....@....@...
    ..@....@....@...
    ..@....@....@...
    ..@...@@...@@...
    ..@...@....@....
    ..@@..@...@.....
    ....@.@.@@......
    .....@@@@.......
    ......@.........
    .....@..........


# 0x278
0x26, 0x58:
    ................
    ................
    ................
    .....@....@.....
    ....@......@....
    ...@........@...
    ..@.....@...@...
    ..@.....@....@..
    .@......@....@..
    .@......@....@..
    .@.....@.....@..
    .@.....@.....@..
    ..@...@.@...@...
    ...@@@...@@@....
    ................
    ................


# 0x279
0x26, 0x59:
    ................
    ................
    ................
    ................
    ................
    ................
    ................
    ................
    ................
    ................
    ................
    ................
    ................
    ................
    ................
    ................


# 0x27a
0x26, 0x5a:
    ................
    ................
    ................
    ................
    ................
    ................
    ................
    ................
    ................
    ................
    ................
    ................
    ................
    ................
    ................
    ................


# 0x27b
0x26, 0x5b:
    ................
    ................
    ................
    ................
    ................
    ................
    ................
    ................
    ................
    ................
    ................
    ................
    ................
    ................
    ................
    ................


# 0x27c
0x26, 0x5c:
    ................
    ................
    ................
    ................
    ................
    ................
    ................
    ................
    ................
    ................
    ................
    ................
    ................
    ................
    ................
    ................


# 0x27d
0x26, 0x5d:
    ................
    ................
    ................
    ................
    ................
    ................
    ................
    ................
    ................
    ................
    ................
    ................
    ................
    ................
    ................
    ................


# 0x27e
0x26, 0x5e:
    ................
    ................
    ................
    ................
    ................
    ................
    ................
    ................
    ................
    ................
    ................
    ................
    ................
    ................
    ................
    ................


# 0x27f
0x26, 0x5f:
    ................
    .@.@.@.@.@.@.@..
    ..@.@.@.@.@.@.@.
    .@.@.@.@.@.@.@..
    ..@.@.@.@.@.@.@.
    .@.@.@.@.@.@.@..
    ..@.@.@.@.@.@.@.
    .@.@.@.@.@.@.@..
    ..@.@.@.@.@.@.@.
    .@.@.@.@.@.@.@..
    ..@.@.@.@.@.@.@.
    .@.@.@.@.@.@.@..
    ..@.@.@.@.@.@.@.
    .@.@.@.@.@.@.@..
    ..@.@.@.@.@.@.@.
    ................


# 0x280
0x26, 0x60:
    ................
    ................
    ................
    ................
    ................
    ................
    ................
    ................
    ................
    ................
    ................
    ................
    ................
    ................
    ................
    ................


# 0x281
0x26, 0x61:
    ................
    ................
    ................
    ................
    ................
    ................
    ................
    ................
    ................
    ................
    ................
    ................
    ................
    ................
    ................
    ................


# 0x282
0x26, 0x62:
    ................
    ................
    ................
    ................
    ................
    ................
    ................
    ................
    ................
    ................
    ................
    ................
    ................
    ................
    ................
    ................


# 0x283
0x26, 0x63:
    ................
    ................
    ................
    ................
    ................
    ................
    ................
    ................
    ................
    ................
    ................
    ................
    ................
    ................
    ................
    ................


# 0x284
0x26, 0x64:
    ................
    ................
    ................
    ................
    ................
    ................
    ................
    ................
    ................
    ................
    ................
    ................
    ................
    ................
    ................
    ................


# 0x285
0x26, 0x65:
    ................
    ................
    ................
    ................
    ................
    ................
    ................
    ................
    ................
    ................
    ................
    ................
    ................
    ................
    ................
    ................


# 0x286
0x26, 0x66:
    ................
    ................
    ................
    ................
    ................
    ................
    ................
    ................
    ................
    ................
    ................
    ................
    ................
    ................
    ................
    ................


# 0x287
0x26, 0x67:
    ................
    ................
    ................
    ................
    ................
    ................
    ................
    ................
    ................
    ................
    ................
    ................
    ................
    ................
    ................
    ................


# 0x288
0x26, 0x68:
    ................
    ................
    ................
    ................
    ................
    ................
    ................
    ................
    ................
    ................
    ................
    ................
    ................
    ................
    ................
    ................


# 0x289
0x26, 0x69:
    ................
    ................
    ................
    ................
    ................
    ................
    ................
    ................
    ................
    ................
    ................
    ................
    ................
    ................
    ................
    ................


# 0x28a
0x26, 0x6a:
    ................
    ................
    ................
    ................
    ................
    ................
    ................
    ................
    ................
    ................
    ................
    ................
    ................
    ................
    ................
    ................


# 0x28b
0x26, 0x6b:
    ................
    ................
    ................
    ................
    ................
    ................
    ................
    ................
    ................
    ................
    ................
    ................
    ................
    ................
    ................
    ................


# 0x28c
0x26, 0x6c:
    ................
    ................
    ................
    ................
    ................
    ................
    ................
    ................
    ................
    ................
    ................
    ................
    ................
    ................
    ................
    ................


# 0x28d
0x26, 0x6d:
    ................
    ................
    ................
    ................
    ................
    ................
    ................
    ................
    ................
    ................
    ................
    ................
    ................
    ................
    ................
    ................


